<svg width="46" height="62" viewBox="0 0 46 62" fill="none" xmlns="http://www.w3.org/2000/svg">
  <g filter="url(#filter0_d_18_879)">
    <path d="M41 1H1V41H11.7624L21 57L30.2376 41H41V1Z" fill="white"/>
    <path d="M41 1H1V41H11.7624L21 57L30.2376 41H41V1Z" stroke="#041C32" stroke-width="2" stroke-linejoin="round"/>
  </g>
  <path d="M7.18729 27L14.436 14H26.434L34.1827 27H22.1156H14.436H7.18729Z" fill="#ECB365"/>
  <path d="M7.18729 27L6.7258 27.1924C6.80346 27.3787 6.98549 27.5 7.18729 27.5V27ZM14.436 14V13.5C14.2547 13.5 14.0876 13.5981 13.9993 13.7565L14.436 14ZM26.434 14L26.8635 13.744C26.7733 13.5927 26.6101 13.5 26.434 13.5V14ZM34.1827 27V27.5C34.3986 27.5 34.5901 27.3614 34.6576 27.1563L34.1827 27ZM23.5935 24.319C23.6855 24.0586 23.549 23.773 23.2887 23.681C23.0283 23.5889 22.7427 23.7254 22.6506 23.9858L23.5935 24.319ZM6.46149 23.96C6.35522 23.7051 6.06246 23.5846 5.80758 23.6909C5.55271 23.7972 5.43224 24.0899 5.53851 24.3448L6.46149 23.96ZM35.5949 24.3087C35.6813 24.0464 35.5386 23.7638 35.2763 23.6774C35.014 23.5911 34.7314 23.7338 34.6451 23.996L35.5949 24.3087ZM21.6848 15.5C21.4087 15.5 21.1848 15.7239 21.1848 16C21.1848 16.2761 21.4087 16.5 21.6848 16.5V15.5ZM25.5591 16.5C25.8353 16.5 26.0591 16.2761 26.0591 16C26.0591 15.7239 25.8353 15.5 25.5591 15.5V16.5ZM20.0601 15.5C19.7839 15.5 19.5601 15.7239 19.5601 16C19.5601 16.2761 19.7839 16.5 20.0601 16.5V15.5ZM20.1851 16.5C20.4612 16.5 20.6851 16.2761 20.6851 16C20.6851 15.7239 20.4612 15.5 20.1851 15.5V16.5ZM7.62399 27.2435L14.8727 14.2435L13.9993 13.7565L6.7506 26.7565L7.62399 27.2435ZM14.436 14.5H26.434V13.5H14.436V14.5ZM26.0045 14.256L33.7532 27.256L34.6122 26.744L26.8635 13.744L26.0045 14.256ZM14.436 26.5H7.18729V27.5H14.436V26.5ZM14.936 27V14H13.936V27H14.936ZM34.1827 26.5H22.1156V27.5H34.1827V26.5ZM22.1156 26.5H14.436V27.5H22.1156V26.5ZM14.0056 14.2543L21.6851 27.2543L22.5461 26.7457L14.8665 13.7457L14.0056 14.2543ZM22.6506 23.9858L21.6442 26.8334L22.587 27.1666L23.5935 24.319L22.6506 23.9858ZM5.53851 24.3448L6.7258 27.1924L7.64879 26.8076L6.46149 23.96L5.53851 24.3448ZM34.6451 23.996L33.7077 26.8437L34.6576 27.1563L35.5949 24.3087L34.6451 23.996ZM21.6848 16.5H25.5591V15.5H21.6848V16.5ZM20.0601 16.5H20.1851V15.5H20.0601V16.5Z" fill="#041C32"/>
  <defs>
    <filter id="filter0_d_18_879" x="0" y="0" width="46" height="62" filterUnits="userSpaceOnUse" color-interpolation-filters="sRGB">
      <feFlood flood-opacity="0" result="BackgroundImageFix"/>
      <feColorMatrix in="SourceAlpha" type="matrix" values="0 0 0 0 0 0 0 0 0 0 0 0 0 0 0 0 0 0 127 0" result="hardAlpha"/>
      <feOffset dx="4" dy="4"/>
      <feComposite in2="hardAlpha" operator="out"/>
      <feColorMatrix type="matrix" values="0 0 0 0 0.92549 0 0 0 0 0.701961 0 0 0 0 0.396078 0 0 0 1 0"/>
      <feBlend mode="normal" in2="BackgroundImageFix" result="effect1_dropShadow_18_879"/>
      <feBlend mode="normal" in="SourceGraphic" in2="effect1_dropShadow_18_879" result="shape"/>
    </filter>
  </defs>
</svg>
