<svg width="42" height="63" viewBox="0 0 42 63" fill="none" xmlns="http://www.w3.org/2000/svg">
<path d="M21.0753 31.5102C21.0753 32.0625 21.523 32.5102 22.0753 32.5102C22.6276 32.5102 23.0753 32.0625 23.0753 31.5102H21.0753ZM27.2018 32.3679C27.2018 32.9202 27.6495 33.3679 28.2018 33.3679C28.7541 33.3679 29.2018 32.9202 29.2018 32.3679H27.2018ZM33.5734 33.5932C33.5734 34.1455 34.0211 34.5932 34.5734 34.5932C35.1257 34.5932 35.5734 34.1455 35.5734 33.5932H33.5734ZM40.945 29.9173H39.945V29.9263L39.9452 29.9353L40.945 29.9173ZM37.5142 57.3642V58.3642H37.9948L38.295 57.9889L37.5142 57.3642ZM19.7472 57.3642L18.761 57.5299L18.9013 58.3642H19.7472V57.3642ZM9.69969 44.621L8.89095 45.2091L8.89095 45.2091L9.69969 44.621ZM3.81821 41.6802L4.0735 40.7134L3.96931 40.6859L3.86165 40.6812L3.81821 41.6802ZM3.81821 35.6762V36.6762H3.86078L3.9032 36.6726L3.81821 35.6762ZM28.2018 27.4667H29.2018V27.4389L29.2003 27.4112L28.2018 27.4667ZM34.5734 29.9173L35.5735 29.9173L35.5734 29.9072L34.5734 29.9173ZM18.3994 53.9333L17.6263 54.5676L17.6263 54.5676L18.3994 53.9333ZM9.45462 36.0438L9.68218 35.0701L9.45462 36.0438ZM16.5812 38.2494C16.5812 38.2472 16.5812 38.245 16.5812 38.2427C16.5812 38.2403 16.5812 38.2379 16.5812 38.2355C16.5812 38.233 16.5812 38.2304 16.5812 38.2277C16.5812 38.2251 16.5812 38.2224 16.5812 38.2195C16.5812 38.2167 16.5812 38.2138 16.5812 38.2108C16.5812 38.2079 16.5812 38.2048 16.5812 38.2016C16.5812 38.1985 16.5812 38.1953 16.5812 38.192C16.5812 38.1887 16.5812 38.1853 16.5812 38.1818C16.5812 38.1783 16.5812 38.1748 16.5812 38.1711C16.5812 38.1675 16.5812 38.1638 16.5812 38.16C16.5812 38.1562 16.5812 38.1523 16.5812 38.1484C16.5812 38.1444 16.5812 38.1404 16.5812 38.1363C16.5812 38.1322 16.5812 38.128 16.5812 38.1237C16.5812 38.1194 16.5812 38.1151 16.5812 38.1106C16.5812 38.1062 16.5812 38.1017 16.5812 38.0971C16.5812 38.0925 16.5812 38.0879 16.5812 38.0831C16.5812 38.0784 16.5812 38.0735 16.5812 38.0686C16.5812 38.0637 16.5812 38.0588 16.5812 38.0537C16.5812 38.0486 16.5812 38.0435 16.5812 38.0383C16.5812 38.0331 16.5812 38.0278 16.5812 38.0224C16.5812 38.0171 16.5812 38.0116 16.5812 38.0061C16.5812 38.0006 16.5812 37.995 16.5812 37.9893C16.5812 37.9836 16.5812 37.9779 16.5812 37.9721C16.5812 37.9662 16.5812 37.9603 16.5812 37.9544C16.5812 37.9484 16.5812 37.9423 16.5812 37.9362C16.5812 37.9301 16.5812 37.9239 16.5812 37.9176C16.5812 37.9113 16.5812 37.905 16.5812 37.8985C16.5812 37.8921 16.5812 37.8856 16.5812 37.879C16.5812 37.8724 16.5812 37.8658 16.5812 37.8591C16.5812 37.8523 16.5812 37.8455 16.5812 37.8387C16.5812 37.8318 16.5812 37.8249 16.5812 37.8178C16.5812 37.8108 16.5812 37.8037 16.5812 37.7966C16.5812 37.7894 16.5812 37.7822 16.5812 37.7748C16.5812 37.7675 16.5812 37.7601 16.5812 37.7527C16.5812 37.7452 16.5812 37.7377 16.5812 37.7301C16.5812 37.7225 16.5812 37.7148 16.5812 37.7071C16.5812 37.6993 16.5812 37.6915 16.5812 37.6836C16.5812 37.6758 16.5812 37.6678 16.5812 37.6598C16.5812 37.6517 16.5812 37.6436 16.5812 37.6355C16.5812 37.6273 16.5812 37.6191 16.5812 37.6107C16.5812 37.6024 16.5812 37.5941 16.5812 37.5856C16.5812 37.5772 16.5812 37.5686 16.5812 37.56C16.5812 37.5515 16.5812 37.5428 16.5812 37.5341C16.5812 37.5253 16.5812 37.5165 16.5812 37.5077C16.5812 37.4988 16.5812 37.4899 16.5812 37.4809C16.5812 37.4718 16.5812 37.4628 16.5812 37.4536C16.5812 37.4445 16.5812 37.4353 16.5812 37.426C16.5812 37.4167 16.5812 37.4074 16.5812 37.398C16.5812 37.3885 16.5812 37.3791 16.5812 37.3695C16.5812 37.36 16.5812 37.3504 16.5812 37.3407C16.5812 37.331 16.5812 37.3212 16.5812 37.3114C16.5812 37.3016 16.5812 37.2917 16.5812 37.2818C16.5812 37.2718 16.5812 37.2618 16.5812 37.2517C16.5812 37.2416 16.5812 37.2315 16.5812 37.2213C16.5812 37.2111 16.5812 37.2008 16.5812 37.1904C16.5812 37.1801 16.5812 37.1697 16.5812 37.1592C16.5812 37.1487 16.5812 37.1382 16.5812 37.1276C16.5812 37.117 16.5812 37.1063 16.5812 37.0956C16.5812 37.0849 16.5812 37.0741 16.5812 37.0632C16.5812 37.0524 16.5812 37.0414 16.5812 37.0304C16.5812 37.0195 16.5812 37.0084 16.5812 36.9973C16.5812 36.9862 16.5812 36.975 16.5812 36.9638C16.5812 36.9525 16.5812 36.9412 16.5812 36.9298C16.5812 36.9185 16.5812 36.907 16.5812 36.8956C16.5812 36.8841 16.5812 36.8725 16.5812 36.8609C16.5812 36.8493 16.5812 36.8376 16.5812 36.8259C16.5812 36.8141 16.5812 36.8023 16.5812 36.7905C16.5812 36.7786 16.5812 36.7667 16.5812 36.7547C16.5812 36.7427 16.5812 36.7307 16.5812 36.7186C16.5812 36.7065 16.5812 36.6943 16.5812 36.6821C16.5812 36.6698 16.5812 36.6576 16.5812 36.6452C16.5812 36.6329 16.5812 36.6205 16.5812 36.608C16.5812 36.5955 16.5812 36.583 16.5812 36.5704C16.5812 36.5578 16.5812 36.5452 16.5812 36.5325C16.5812 36.5198 16.5812 36.507 16.5812 36.4942C16.5812 36.4814 16.5812 36.4685 16.5812 36.4556C16.5812 36.4426 16.5812 36.4296 16.5812 36.4166C16.5812 36.4035 16.5812 36.3904 16.5812 36.3773C16.5812 36.3641 16.5812 36.3509 16.5812 36.3376C16.5812 36.3243 16.5812 36.311 16.5812 36.2976C16.5812 36.2842 16.5812 36.2707 16.5812 36.2572C16.5812 36.2437 16.5812 36.2301 16.5812 36.2165C16.5812 36.2029 16.5812 36.1892 16.5812 36.1755C16.5812 36.1617 16.5812 36.148 16.5812 36.1341C16.5812 36.1203 16.5812 36.1064 16.5812 36.0924C16.5812 36.0784 16.5812 36.0644 16.5812 36.0504C16.5812 36.0363 16.5812 36.0222 16.5812 36.008C16.5812 35.9938 16.5812 35.9796 16.5812 35.9653C16.5812 35.951 16.5812 35.9367 16.5812 35.9223C16.5812 35.9079 16.5812 35.8935 16.5812 35.879C16.5812 35.8645 16.5812 35.8499 16.5812 35.8353C16.5812 35.8207 16.5812 35.806 16.5812 35.7913C16.5812 35.7766 16.5812 35.7618 16.5812 35.747C16.5812 35.7322 16.5812 35.7173 16.5812 35.7024C16.5812 35.6875 16.5812 35.6725 16.5812 35.6575C16.5812 35.6425 16.5812 35.6274 16.5812 35.6122C16.5812 35.5971 16.5812 35.5819 16.5812 35.5667C16.5812 35.5515 16.5812 35.5362 16.5812 35.5208C16.5812 35.5055 16.5812 35.4901 16.5812 35.4747C16.5812 35.4593 16.5812 35.4438 16.5812 35.4282C16.5812 35.4127 16.5812 35.3971 16.5812 35.3815C16.5812 35.3658 16.5812 35.3501 16.5812 35.3344C16.5812 35.3187 16.5812 35.3029 16.5812 35.287C16.5812 35.2712 16.5812 35.2553 16.5812 35.2394C16.5812 35.2235 16.5812 35.2075 16.5812 35.1915C16.5812 35.1754 16.5812 35.1593 16.5812 35.1432C16.5812 35.1271 16.5812 35.1109 16.5812 35.0947C16.5812 35.0785 16.5812 35.0622 16.5812 35.0459C16.5812 35.0296 16.5812 35.0132 16.5812 34.9968C16.5812 34.9804 16.5812 34.9639 16.5812 34.9474C16.5812 34.9309 16.5812 34.9143 16.5812 34.8977C16.5812 34.8811 16.5812 34.8645 16.5812 34.8478C16.5812 34.8311 16.5812 34.8144 16.5812 34.7976C16.5812 34.7808 16.5812 34.764 16.5812 34.7471C16.5812 34.7302 16.5812 34.7133 16.5812 34.6963C16.5812 34.6794 16.5812 34.6624 16.5812 34.6453C16.5812 34.6282 16.5812 34.6111 16.5812 34.594C16.5812 34.5768 16.5812 34.5597 16.5812 34.5424C16.5812 34.5252 16.5812 34.5079 16.5812 34.4906C16.5812 34.4733 16.5812 34.4559 16.5812 34.4385C16.5812 34.4211 16.5812 34.4036 16.5812 34.3861C16.5812 34.3686 16.5812 34.3511 16.5812 34.3335C16.5812 34.3159 16.5812 34.2983 16.5812 34.2806C16.5812 34.263 16.5812 34.2453 16.5812 34.2275C16.5812 34.2098 16.5812 34.192 16.5812 34.1741C16.5812 34.1563 16.5812 34.1384 16.5812 34.1205C16.5812 34.1026 16.5812 34.0846 16.5812 34.0666C16.5812 34.0486 16.5812 34.0306 16.5812 34.0125C16.5812 33.9944 16.5812 33.9763 16.5812 33.9581C16.5812 33.94 16.5812 33.9217 16.5812 33.9035C16.5812 33.8853 16.5812 33.867 16.5812 33.8486C16.5812 33.8303 16.5812 33.812 16.5812 33.7936C16.5812 33.7751 16.5812 33.7567 16.5812 33.7382C16.5812 33.7197 16.5812 33.7012 16.5812 33.6827C16.5812 33.6641 16.5812 33.6455 16.5812 33.6269C16.5812 33.6082 16.5812 33.5895 16.5812 33.5708C16.5812 33.5521 16.5812 33.5334 16.5812 33.5146C16.5812 33.4958 16.5812 33.477 16.5812 33.4581C16.5812 33.4392 16.5812 33.4203 16.5812 33.4014C16.5812 33.3824 16.5812 33.3635 16.5812 33.3444C16.5812 33.3254 16.5812 33.3064 16.5812 33.2873C16.5812 33.2682 16.5812 33.2491 16.5812 33.2299C16.5812 33.2108 16.5812 33.1916 16.5812 33.1723C16.5812 33.1531 16.5812 33.1338 16.5812 33.1145C16.5812 33.0952 16.5812 33.0759 16.5812 33.0565C16.5812 33.0371 16.5812 33.0177 16.5812 32.9983C16.5812 32.9789 16.5812 32.9594 16.5812 32.9399C16.5812 32.9204 16.5812 32.9008 16.5812 32.8812C16.5812 32.8616 16.5812 32.842 16.5812 32.8224C16.5812 32.8027 16.5812 32.7831 16.5812 32.7633C16.5812 32.7436 16.5812 32.7239 16.5812 32.7041C16.5812 32.6843 16.5812 32.6645 16.5812 32.6446C16.5812 32.6248 16.5812 32.6049 16.5812 32.585C16.5812 32.5651 16.5812 32.5451 16.5812 32.5252C16.5812 32.5052 16.5812 32.4852 16.5812 32.4651C16.5812 32.4451 16.5812 32.425 16.5812 32.4049C16.5812 32.3848 16.5812 32.3647 16.5812 32.3445C16.5812 32.3243 16.5812 32.3041 16.5812 32.2839C16.5812 32.2637 16.5812 32.2434 16.5812 32.2231C16.5812 32.2028 16.5812 32.1825 16.5812 32.1622C16.5812 32.1418 16.5812 32.1214 16.5812 32.101C16.5812 32.0806 16.5812 32.0602 16.5812 32.0397C16.5812 32.0192 16.5812 31.9987 16.5812 31.9782C16.5812 31.9577 16.5812 31.9371 16.5812 31.9165C16.5812 31.896 16.5812 31.8753 16.5812 31.8547C16.5812 31.8341 16.5812 31.8134 16.5812 31.7927C16.5812 31.772 16.5812 31.7513 16.5812 31.7305C16.5812 31.7098 16.5812 31.689 16.5812 31.6682C16.5812 31.6474 16.5812 31.6265 16.5812 31.6057C16.5812 31.5848 16.5812 31.5639 16.5812 31.543C16.5812 31.5221 16.5812 31.5011 16.5812 31.4801C16.5812 31.4592 16.5812 31.4382 16.5812 31.4172C16.5812 31.3961 16.5812 31.3751 16.5812 31.354C16.5812 31.3329 16.5812 31.3118 16.5812 31.2907C16.5812 31.2696 16.5812 31.2484 16.5812 31.2272C16.5812 31.2061 16.5812 31.1849 16.5812 31.1636C16.5812 31.1424 16.5812 31.1212 16.5812 31.0999C16.5812 31.0786 16.5812 31.0573 16.5812 31.036C16.5812 31.0147 16.5812 30.9933 16.5812 30.9719C16.5812 30.9506 16.5812 30.9292 16.5812 30.9078C16.5812 30.8863 16.5812 30.8649 16.5812 30.8434C16.5812 30.822 16.5812 30.8005 16.5812 30.779C16.5812 30.7575 16.5812 30.7359 16.5812 30.7144C16.5812 30.6928 16.5812 30.6712 16.5812 30.6496C16.5812 30.628 16.5812 30.6064 16.5812 30.5848C16.5812 30.5631 16.5812 30.5415 16.5812 30.5198C16.5812 30.4981 16.5812 30.4764 16.5812 30.4546C16.5812 30.4329 16.5812 30.4112 16.5812 30.3894C16.5812 30.3676 16.5812 30.3458 16.5812 30.324C16.5812 30.3022 16.5812 30.2804 16.5812 30.2585C16.5812 30.2367 16.5812 30.2148 16.5812 30.1929C16.5812 30.171 16.5812 30.1491 16.5812 30.1272C16.5812 30.1052 16.5812 30.0833 16.5812 30.0613C16.5812 30.0393 16.5812 30.0174 16.5812 29.9953C16.5812 29.9733 16.5812 29.9513 16.5812 29.9293C16.5812 29.9072 16.5812 29.8852 16.5812 29.8631C16.5812 29.841 16.5812 29.8189 16.5812 29.7968C16.5812 29.7747 16.5812 29.7525 16.5812 29.7304C16.5812 29.7082 16.5812 29.6861 16.5812 29.6639C16.5812 29.6417 16.5812 29.6195 16.5812 29.5973C16.5812 29.5751 16.5812 29.5528 16.5812 29.5306C16.5812 29.5083 16.5812 29.486 16.5812 29.4638C16.5812 29.4415 16.5812 29.4192 16.5812 29.3969C16.5812 29.3745 16.5812 29.3522 16.5812 29.3299C16.5812 29.3075 16.5812 29.2852 16.5812 29.2628C16.5812 29.2404 16.5812 29.218 16.5812 29.1956C16.5812 29.1732 16.5812 29.1508 16.5812 29.1283C16.5812 29.1059 16.5812 29.0834 16.5812 29.061C16.5812 29.0385 16.5812 29.016 16.5812 28.9935C16.5812 28.9711 16.5812 28.9486 16.5812 28.926C16.5812 28.9035 16.5812 28.881 16.5812 28.8584C16.5812 28.8359 16.5812 28.8133 16.5812 28.7908C16.5812 28.7682 16.5812 28.7456 16.5812 28.723C16.5812 28.7004 16.5812 28.6778 16.5812 28.6552C16.5812 28.6326 16.5812 28.6099 16.5812 28.5873C16.5812 28.5646 16.5812 28.542 16.5812 28.5193C16.5812 28.4967 16.5812 28.474 16.5812 28.4513C16.5812 28.4286 16.5812 28.4059 16.5812 28.3832C16.5812 28.3605 16.5812 28.3378 16.5812 28.315C16.5812 28.2923 16.5812 28.2696 16.5812 28.2468C16.5812 28.2241 16.5812 28.2013 16.5812 28.1785C16.5812 28.1558 16.5812 28.133 16.5812 28.1102C16.5812 28.0874 16.5812 28.0646 16.5812 28.0418C16.5812 28.019 16.5812 27.9962 16.5812 27.9733C16.5812 27.9505 16.5812 27.9277 16.5812 27.9048C16.5812 27.882 16.5812 27.8591 16.5812 27.8363C16.5812 27.8134 16.5812 27.7906 16.5812 27.7677C16.5812 27.7448 16.5812 27.7219 16.5812 27.699C16.5812 27.6761 16.5812 27.6532 16.5812 27.6303C16.5812 27.6074 16.5812 27.5845 16.5812 27.5616C16.5812 27.5387 16.5812 27.5158 16.5812 27.4928C16.5812 27.4699 16.5812 27.447 16.5812 27.424C16.5812 27.4011 16.5812 27.3781 16.5812 27.3552C16.5812 27.3322 16.5812 27.3093 16.5812 27.2863C16.5812 27.2633 16.5812 27.2404 16.5812 27.2174C16.5812 27.1944 16.5812 27.1714 16.5812 27.1485C16.5812 27.1255 16.5812 27.1025 16.5812 27.0795C16.5812 27.0565 16.5812 27.0335 16.5812 27.0105C16.5812 26.9875 16.5812 26.9645 16.5812 26.9415C16.5812 26.9185 16.5812 26.8955 16.5812 26.8724C16.5812 26.8494 16.5812 26.8264 16.5812 26.8034C16.5812 26.7804 16.5812 26.7573 16.5812 26.7343C16.5812 26.7113 16.5812 26.6883 16.5812 26.6652C16.5812 26.6422 16.5812 26.6192 16.5812 26.5961C16.5812 26.5731 16.5812 26.55 16.5812 26.527C16.5812 26.504 16.5812 26.4809 16.5812 26.4579C16.5812 26.4348 16.5812 26.4118 16.5812 26.3887C16.5812 26.3657 16.5812 26.3427 16.5812 26.3196C16.5812 26.2966 16.5812 26.2735 16.5812 26.2505C16.5812 26.2274 16.5812 26.2044 16.5812 26.1813C16.5812 26.1583 16.5812 26.1352 16.5812 26.1122C16.5812 26.0891 16.5812 26.0661 16.5812 26.043C16.5812 26.02 16.5812 25.997 16.5812 25.9739C16.5812 25.9509 16.5812 25.9278 16.5812 25.9048C16.5812 25.8817 16.5812 25.8587 16.5812 25.8357C16.5812 25.8126 16.5812 25.7896 16.5812 25.7666C16.5812 25.7435 16.5812 25.7205 16.5812 25.6975C16.5812 25.6744 16.5812 25.6514 16.5812 25.6284C16.5812 25.6053 16.5812 25.5823 16.5812 25.5593C16.5812 25.5363 16.5812 25.5133 16.5812 25.4903C16.5812 25.4672 16.5812 25.4442 16.5812 25.4212C16.5812 25.3982 16.5812 25.3752 16.5812 25.3522C16.5812 25.3292 16.5812 25.3062 16.5812 25.2833C16.5812 25.2603 16.5812 25.2373 16.5812 25.2143C16.5812 25.1913 16.5812 25.1683 16.5812 25.1454C16.5812 25.1224 16.5812 25.0994 16.5812 25.0765C16.5812 25.0535 16.5812 25.0306 16.5812 25.0076C16.5812 24.9847 16.5812 24.9617 16.5812 24.9388C16.5812 24.9159 16.5812 24.8929 16.5812 24.87C16.5812 24.8471 16.5812 24.8242 16.5812 24.8013C16.5812 24.7784 16.5812 24.7555 16.5812 24.7326C16.5812 24.7097 16.5812 24.6868 16.5812 24.6639C16.5812 24.641 16.5812 24.6181 16.5812 24.5953C16.5812 24.5724 16.5812 24.5495 16.5812 24.5267C16.5812 24.5038 16.5812 24.481 16.5812 24.4582C16.5812 24.4353 16.5812 24.4125 16.5812 24.3897C16.5812 24.3669 16.5812 24.3441 16.5812 24.3213C16.5812 24.2985 16.5812 24.2757 16.5812 24.2529C16.5812 24.2301 16.5812 24.2074 16.5812 24.1846C16.5812 24.1618 16.5812 24.1391 16.5812 24.1163C16.5812 24.0936 16.5812 24.0709 16.5812 24.0482C16.5812 24.0254 16.5812 24.0027 16.5812 23.98C16.5812 23.9573 16.5812 23.9346 16.5812 23.912C16.5812 23.8893 16.5812 23.8666 16.5812 23.844C16.5812 23.8213 16.5812 23.7987 16.5812 23.776C16.5812 23.7534 16.5812 23.7308 16.5812 23.7082C16.5812 23.6856 16.5812 23.663 16.5812 23.6404C16.5812 23.6178 16.5812 23.5953 16.5812 23.5727C16.5812 23.5501 16.5812 23.5276 16.5812 23.5051C16.5812 23.4825 16.5812 23.46 16.5812 23.4375C16.5812 23.415 16.5812 23.3925 16.5812 23.37C16.5812 23.3476 16.5812 23.3251 16.5812 23.3027C16.5812 23.2802 16.5812 23.2578 16.5812 23.2353C16.5812 23.2129 16.5812 23.1905 16.5812 23.1681C16.5812 23.1457 16.5812 23.1234 16.5812 23.101C16.5812 23.0786 16.5812 23.0563 16.5812 23.034C16.5812 23.0116 16.5812 22.9893 16.5812 22.967C16.5812 22.9447 16.5812 22.9224 16.5812 22.9002C16.5812 22.8779 16.5812 22.8557 16.5812 22.8334C16.5812 22.8112 16.5812 22.789 16.5812 22.7668C16.5812 22.7446 16.5812 22.7224 16.5812 22.7002C16.5812 22.6781 16.5812 22.6559 16.5812 22.6338C16.5812 22.6116 16.5812 22.5895 16.5812 22.5674C16.5812 22.5453 16.5812 22.5233 16.5812 22.5012C16.5812 22.4791 16.5812 22.4571 16.5812 22.4351C16.5812 22.413 16.5812 22.391 16.5812 22.3691C16.5812 22.3471 16.5812 22.3251 16.5812 22.3032C16.5812 22.2812 16.5812 22.2593 16.5812 22.2374C16.5812 22.2155 16.5812 22.1936 16.5812 22.1717C16.5812 22.1498 16.5812 22.128 16.5812 22.1061C16.5812 22.0843 16.5812 22.0625 16.5812 22.0407C16.5812 22.0189 16.5812 21.9972 16.5812 21.9754C16.5812 21.9537 16.5812 21.9319 16.5812 21.9102C16.5812 21.8885 16.5812 21.8668 16.5812 21.8452C16.5812 21.8235 16.5812 21.8019 16.5812 21.7802C16.5812 21.7586 16.5812 21.737 16.5812 21.7155C16.5812 21.6939 16.5812 21.6723 16.5812 21.6508C16.5812 21.6293 16.5812 21.6078 16.5812 21.5863C16.5812 21.5648 16.5812 21.5433 16.5812 21.5219C16.5812 21.5004 16.5812 21.479 16.5812 21.4576C16.5812 21.4362 16.5812 21.4149 16.5812 21.3935C16.5812 21.3722 16.5812 21.3509 16.5812 21.3296C16.5812 21.3083 16.5812 21.287 16.5812 21.2657C16.5812 21.2445 16.5812 21.2233 16.5812 21.2021C16.5812 21.1809 16.5812 21.1597 16.5812 21.1385C16.5812 21.1174 16.5812 21.0963 16.5812 21.0752C16.5812 21.0541 16.5812 21.033 16.5812 21.012C16.5812 20.9909 16.5812 20.9699 16.5812 20.9489C16.5812 20.9279 16.5812 20.9069 16.5812 20.886C16.5812 20.8651 16.5812 20.8441 16.5812 20.8232C16.5812 20.8024 16.5812 20.7815 16.5812 20.7607C16.5812 20.7398 16.5812 20.719 16.5812 20.6982C16.5812 20.6775 16.5812 20.6567 16.5812 20.636C16.5812 20.6153 16.5812 20.5946 16.5812 20.5739C16.5812 20.5532 16.5812 20.5326 16.5812 20.512C16.5812 20.4914 16.5812 20.4708 16.5812 20.4502C16.5812 20.4297 16.5812 20.4092 16.5812 20.3887C16.5812 20.3682 16.5812 20.3477 16.5812 20.3273C16.5812 20.3068 16.5812 20.2864 16.5812 20.266C16.5812 20.2457 16.5812 20.2253 16.5812 20.205C16.5812 20.1847 16.5812 20.1644 16.5812 20.1441C16.5812 20.1239 16.5812 20.1037 16.5812 20.0835C16.5812 20.0633 16.5812 20.0431 16.5812 20.023C16.5812 20.0028 16.5812 19.9827 16.5812 19.9627C16.5812 19.9426 16.5812 19.9226 16.5812 19.9026C16.5812 19.8826 16.5812 19.8626 16.5812 19.8426C16.5812 19.8227 16.5812 19.8028 16.5812 19.7829C16.5812 19.763 16.5812 19.7432 16.5812 19.7234C16.5812 19.7036 16.5812 19.6838 16.5812 19.664C16.5812 19.6443 16.5812 19.6246 16.5812 19.6049C16.5812 19.5852 16.5812 19.5656 16.5812 19.546C16.5812 19.5264 16.5812 19.5068 16.5812 19.4872C16.5812 19.4677 16.5812 19.4482 16.5812 19.4287C16.5812 19.4092 16.5812 19.3898 16.5812 19.3704C16.5812 19.351 16.5812 19.3316 16.5812 19.3123C16.5812 19.293 16.5812 19.2737 16.5812 19.2544C16.5812 19.2351 16.5812 19.2159 16.5812 19.1967C16.5812 19.1775 16.5812 19.1584 16.5812 19.1392C16.5812 19.1201 16.5812 19.101 16.5812 19.082C16.5812 19.0629 16.5812 19.0439 16.5812 19.025C16.5812 19.006 16.5812 18.9871 16.5812 18.9682C16.5812 18.9493 16.5812 18.9304 16.5812 18.9116C16.5812 18.8927 16.5812 18.874 16.5812 18.8552C16.5812 18.8365 16.5812 18.8178 16.5812 18.7991C16.5812 18.7804 16.5812 18.7618 16.5812 18.7432C16.5812 18.7246 16.5812 18.706 16.5812 18.6875C16.5812 18.669 16.5812 18.6505 16.5812 18.6321C16.5812 18.6136 16.5812 18.5952 16.5812 18.5769C16.5812 18.5585 16.5812 18.5402 16.5812 18.5219C16.5812 18.5036 16.5812 18.4854 16.5812 18.4672C16.5812 18.449 16.5812 18.4308 16.5812 18.4127C16.5812 18.3946 16.5812 18.3765 16.5812 18.3585C16.5812 18.3404 16.5812 18.3224 16.5812 18.3045C16.5812 18.2865 16.5812 18.2686 16.5812 18.2507C16.5812 18.2329 16.5812 18.215 16.5812 18.1972C16.5812 18.1795 16.5812 18.1617 16.5812 18.144C16.5812 18.1263 16.5812 18.1086 16.5812 18.091C16.5812 18.0734 16.5812 18.0558 16.5812 18.0383C16.5812 18.0208 16.5812 18.0033 16.5812 17.9858C16.5812 17.9684 16.5812 17.951 16.5812 17.9336C16.5812 17.9162 16.5812 17.8989 16.5812 17.8816C16.5812 17.8644 16.5812 17.8471 16.5812 17.83C16.5812 17.8128 16.5812 17.7956 16.5812 17.7785C16.5812 17.7614 16.5812 17.7444 16.5812 17.7274C16.5812 17.7104 16.5812 17.6934 16.5812 17.6765C16.5812 17.6596 16.5812 17.6427 16.5812 17.6259C16.5812 17.6091 16.5812 17.5923 16.5812 17.5755C16.5812 17.5588 16.5812 17.5421 16.5812 17.5255C16.5812 17.5088 16.5812 17.4922 16.5812 17.4757C16.5812 17.4592 16.5812 17.4427 16.5812 17.4262C16.5812 17.4097 16.5812 17.3933 16.5812 17.377C16.5812 17.3606 16.5812 17.3443 16.5812 17.328C16.5812 17.3118 16.5812 17.2956 16.5812 17.2794C16.5812 17.2632 16.5812 17.2471 16.5812 17.231C16.5812 17.2149 16.5812 17.1989 16.5812 17.1829C16.5812 17.167 16.5812 17.151 16.5812 17.1352C16.5812 17.1193 16.5812 17.1035 16.5812 17.0877C16.5812 17.0719 16.5812 17.0562 16.5812 17.0405C16.5812 17.0248 16.5812 17.0092 16.5812 16.9936C16.5812 16.978 16.5812 16.9625 16.5812 16.947C16.5812 16.9315 16.5812 16.9161 16.5812 16.9007C16.5812 16.8853 16.5812 16.87 16.5812 16.8547C16.5812 16.8394 16.5812 16.8242 16.5812 16.809C16.5812 16.7939 16.5812 16.7787 16.5812 16.7637C16.5812 16.7486 16.5812 16.7336 16.5812 16.7186C16.5812 16.7036 16.5812 16.6887 16.5812 16.6738C16.5812 16.659 16.5812 16.6442 16.5812 16.6294C16.5812 16.6146 16.5812 16.5999 16.5812 16.5853C16.5812 16.5706 16.5812 16.556 16.5812 16.5415C16.5812 16.5269 16.5812 16.5124 16.5812 16.498C16.5812 16.4836 16.5812 16.4692 16.5812 16.4548C16.5812 16.4405 16.5812 16.4262 16.5812 16.412C16.5812 16.3978 16.5812 16.3836 16.5812 16.3695C16.5812 16.3554 16.5812 16.3413 16.5812 16.3273C16.5812 16.3133 16.5812 16.2994 16.5812 16.2855C16.5812 16.2716 16.5812 16.2577 16.5812 16.2439C16.5812 16.2302 16.5812 16.2164 16.5812 16.2028C16.5812 16.1891 16.5812 16.1755 16.5812 16.1619C16.5812 16.1483 16.5812 16.1348 16.5812 16.1214C16.5812 16.108 16.5812 16.0946 16.5812 16.0812C16.5812 16.0679 16.5812 16.0546 16.5812 16.0414C16.5812 16.0282 16.5812 16.015 16.5812 16.0019C16.5812 15.9888 16.5812 15.9758 16.5812 15.9628C16.5812 15.9498 16.5812 15.9369 16.5812 15.924C16.5812 15.9111 16.5812 15.8983 16.5812 15.8856C16.5812 15.8728 16.5812 15.8601 16.5812 15.8475C16.5812 15.8348 16.5812 15.8223 16.5812 15.8097C16.5812 15.7972 16.5812 15.7848 16.5812 15.7724C16.5812 15.76 16.5812 15.7476 16.5812 15.7353C16.5812 15.7231 16.5812 15.7108 16.5812 15.6987C16.5812 15.6865 16.5812 15.6744 16.5812 15.6624C16.5812 15.6504 16.5812 15.6384 16.5812 15.6265C16.5812 15.6145 16.5812 15.6027 16.5812 15.5909C16.5812 15.5791 16.5812 15.5674 16.5812 15.5557C16.5812 15.544 16.5812 15.5324 16.5812 15.5209C16.5812 15.5093 16.5812 15.4978 16.5812 15.4864C16.5812 15.475 16.5812 15.4636 16.5812 15.4523C16.5812 15.4411 16.5812 15.4298 16.5812 15.4186C16.5812 15.4075 16.5812 15.3964 16.5812 15.3853C16.5812 15.3743 16.5812 15.3633 16.5812 15.3524C16.5812 15.3415 16.5812 15.3306 16.5812 15.3198C16.5812 15.309 16.5812 15.2983 16.5812 15.2876C16.5812 15.277 16.5812 15.2664 16.5812 15.2559C16.5812 15.2453 16.5812 15.2349 16.5812 15.2245C16.5812 15.2141 16.5812 15.2037 16.5812 15.1934C16.5812 15.1832 16.5812 15.173 16.5812 15.1628C16.5812 15.1527 16.5812 15.1426 16.5812 15.1326C16.5812 15.1226 16.5812 15.1127 16.5812 15.1028C16.5812 15.0929 16.5812 15.0831 16.5812 15.0734C16.5812 15.0636 16.5812 15.0539 16.5812 15.0443C16.5812 15.0347 16.5812 15.0252 16.5812 15.0157C16.5812 15.0062 16.5812 14.9968 16.5812 14.9875C16.5812 14.9781 16.5812 14.9689 16.5812 14.9597C16.5812 14.9505 16.5812 14.9413 16.5812 14.9323C16.5812 14.9232 16.5812 14.9142 16.5812 14.9053C16.5812 14.8963 16.5812 14.8875 16.5812 14.8787C16.5812 14.8699 16.5812 14.8612 16.5812 14.8525C16.5812 14.8439 16.5812 14.8353 16.5812 14.8268C16.5812 14.8183 16.5812 14.8098 16.5812 14.8014C16.5812 14.7931 16.5812 14.7848 16.5812 14.7765C16.5812 14.7683 16.5812 14.7601 16.5812 14.7521C16.5812 14.744 16.5812 14.7359 16.5812 14.728C16.5812 14.72 16.5812 14.7122 16.5812 14.7044C16.5812 14.6965 16.5812 14.6888 16.5812 14.6811C16.5812 14.6735 16.5812 14.6659 16.5812 14.6584C16.5812 14.6509 16.5812 14.6434 16.5812 14.636C16.5812 14.6287 16.5812 14.6213 16.5812 14.6141C16.5812 14.6069 16.5812 14.5997 16.5812 14.5926C16.5812 14.5856 16.5812 14.5786 16.5812 14.5716C16.5812 14.5647 16.5812 14.5578 16.5812 14.551C16.5812 14.5442 16.5812 14.5375 16.5812 14.5309C16.5812 14.5242 16.5812 14.5177 16.5812 14.5112C16.5812 14.5047 16.5812 14.4983 16.5812 14.4919C16.5812 14.4856 16.5812 14.4793 16.5812 14.4731C16.5812 14.4669 16.5812 14.4608 16.5812 14.4547C16.5812 14.4487 16.5812 14.4427 16.5812 14.4368C16.5812 14.4309 16.5812 14.4251 16.5812 14.4194C16.5812 14.4136 16.5812 14.408 16.5812 14.4024C16.5812 14.3968 16.5812 14.3913 16.5812 14.3859C16.5812 14.3804 16.5812 14.3751 16.5812 14.3698C16.5812 14.3645 16.5812 14.3593 16.5812 14.3542C16.5812 14.349 16.5812 14.344 16.5812 14.339C16.5812 14.3341 16.5812 14.3292 16.5812 14.3243C16.5812 14.3195 16.5812 14.3148 16.5812 14.3101C16.5812 14.3055 16.5812 14.3009 16.5812 14.2964C16.5812 14.2919 16.5812 14.2875 16.5812 14.2831C16.5812 14.2788 16.5812 14.2745 16.5812 14.2703C16.5812 14.2662 16.5812 14.2621 16.5812 14.258C16.5812 14.254 16.5812 14.2501 16.5812 14.2462C16.5812 14.2423 16.5812 14.2385 16.5812 14.2348C16.5812 14.2311 16.5812 14.2275 16.5812 14.224C16.5812 14.2204 16.5812 14.217 16.5812 14.2136C16.5812 14.2102 16.5812 14.2069 16.5812 14.2037C16.5812 14.2005 16.5812 14.1973 16.5812 14.1943C16.5812 14.1912 16.5812 14.1882 16.5812 14.1854C16.5812 14.1825 16.5812 14.1797 16.5812 14.1769C16.5812 14.1742 16.5812 14.1716 16.5812 14.169C16.5812 14.1664 16.5812 14.164 16.5812 14.1616C16.5812 14.1592 16.5812 14.1569 16.5812 14.1546C16.5812 14.1524 16.5812 14.1503 16.5812 14.1482C16.5812 14.1461 16.5812 14.1442 16.5812 14.1423C16.5812 14.1404 16.5812 14.1386 16.5812 14.1368C16.5812 14.1351 16.5812 14.1335 16.5812 14.1319C16.5812 14.1304 16.5812 14.1289 16.5812 14.1275C16.5812 14.1261 16.5812 14.1248 16.5812 14.1236C16.5812 14.1224 16.5812 14.1213 16.5812 14.1202C16.5812 14.1192 16.5812 14.1182 16.5812 14.1174C16.5812 14.1165 16.5812 14.1157 16.5812 14.115C16.5812 14.1143 16.5812 14.1137 16.5812 14.1132C16.5812 14.1127 16.5812 14.1122 16.5812 14.1119C16.5812 14.1115 16.5812 14.1112 16.5812 14.1111C16.5812 14.1109 16.5812 14.1108 15.5812 14.1108C14.5812 14.1108 14.5812 14.1109 14.5812 14.1111C14.5812 14.1112 14.5812 14.1115 14.5812 14.1119C14.5812 14.1122 14.5812 14.1127 14.5812 14.1132C14.5812 14.1137 14.5812 14.1143 14.5812 14.115C14.5812 14.1157 14.5812 14.1165 14.5812 14.1174C14.5812 14.1182 14.5812 14.1192 14.5812 14.1202C14.5812 14.1213 14.5812 14.1224 14.5812 14.1236C14.5812 14.1248 14.5812 14.1261 14.5812 14.1275C14.5812 14.1289 14.5812 14.1304 14.5812 14.1319C14.5812 14.1335 14.5812 14.1351 14.5812 14.1368C14.5812 14.1386 14.5812 14.1404 14.5812 14.1423C14.5812 14.1442 14.5812 14.1461 14.5812 14.1482C14.5812 14.1503 14.5812 14.1524 14.5812 14.1546C14.5812 14.1569 14.5812 14.1592 14.5812 14.1616C14.5812 14.164 14.5812 14.1664 14.5812 14.169C14.5812 14.1716 14.5812 14.1742 14.5812 14.1769C14.5812 14.1797 14.5812 14.1825 14.5812 14.1854C14.5812 14.1882 14.5812 14.1912 14.5812 14.1943C14.5812 14.1973 14.5812 14.2005 14.5812 14.2037C14.5812 14.2069 14.5812 14.2102 14.5812 14.2136C14.5812 14.217 14.5812 14.2204 14.5812 14.224C14.5812 14.2275 14.5812 14.2311 14.5812 14.2348C14.5812 14.2385 14.5812 14.2423 14.5812 14.2462C14.5812 14.2501 14.5812 14.254 14.5812 14.258C14.5812 14.2621 14.5812 14.2662 14.5812 14.2703C14.5812 14.2745 14.5812 14.2788 14.5812 14.2831C14.5812 14.2875 14.5812 14.2919 14.5812 14.2964C14.5812 14.3009 14.5812 14.3055 14.5812 14.3101C14.5812 14.3148 14.5812 14.3195 14.5812 14.3243C14.5812 14.3292 14.5812 14.3341 14.5812 14.339C14.5812 14.344 14.5812 14.349 14.5812 14.3542C14.5812 14.3593 14.5812 14.3645 14.5812 14.3698C14.5812 14.3751 14.5812 14.3804 14.5812 14.3859C14.5812 14.3913 14.5812 14.3968 14.5812 14.4024C14.5812 14.408 14.5812 14.4136 14.5812 14.4194C14.5812 14.4251 14.5812 14.4309 14.5812 14.4368C14.5812 14.4427 14.5812 14.4487 14.5812 14.4547C14.5812 14.4608 14.5812 14.4669 14.5812 14.4731C14.5812 14.4793 14.5812 14.4856 14.5812 14.4919C14.5812 14.4983 14.5812 14.5047 14.5812 14.5112C14.5812 14.5177 14.5812 14.5242 14.5812 14.5309C14.5812 14.5375 14.5812 14.5442 14.5812 14.551C14.5812 14.5578 14.5812 14.5647 14.5812 14.5716C14.5812 14.5786 14.5812 14.5856 14.5812 14.5926C14.5812 14.5997 14.5812 14.6069 14.5812 14.6141C14.5812 14.6213 14.5812 14.6287 14.5812 14.636C14.5812 14.6434 14.5812 14.6509 14.5812 14.6584C14.5812 14.6659 14.5812 14.6735 14.5812 14.6811C14.5812 14.6888 14.5812 14.6965 14.5812 14.7044C14.5812 14.7122 14.5812 14.72 14.5812 14.728C14.5812 14.7359 14.5812 14.744 14.5812 14.7521C14.5812 14.7601 14.5812 14.7683 14.5812 14.7765C14.5812 14.7848 14.5812 14.7931 14.5812 14.8014C14.5812 14.8098 14.5812 14.8183 14.5812 14.8268C14.5812 14.8353 14.5812 14.8439 14.5812 14.8525C14.5812 14.8612 14.5812 14.8699 14.5812 14.8787C14.5812 14.8875 14.5812 14.8963 14.5812 14.9053C14.5812 14.9142 14.5812 14.9232 14.5812 14.9323C14.5812 14.9413 14.5812 14.9505 14.5812 14.9597C14.5812 14.9689 14.5812 14.9781 14.5812 14.9875C14.5812 14.9968 14.5812 15.0062 14.5812 15.0157C14.5812 15.0252 14.5812 15.0347 14.5812 15.0443C14.5812 15.0539 14.5812 15.0636 14.5812 15.0734C14.5812 15.0831 14.5812 15.0929 14.5812 15.1028C14.5812 15.1127 14.5812 15.1226 14.5812 15.1326C14.5812 15.1426 14.5812 15.1527 14.5812 15.1628C14.5812 15.173 14.5812 15.1832 14.5812 15.1934C14.5812 15.2037 14.5812 15.2141 14.5812 15.2245C14.5812 15.2349 14.5812 15.2453 14.5812 15.2559C14.5812 15.2664 14.5812 15.277 14.5812 15.2876C14.5812 15.2983 14.5812 15.309 14.5812 15.3198C14.5812 15.3306 14.5812 15.3415 14.5812 15.3524C14.5812 15.3633 14.5812 15.3743 14.5812 15.3853C14.5812 15.3964 14.5812 15.4075 14.5812 15.4186C14.5812 15.4298 14.5812 15.4411 14.5812 15.4523C14.5812 15.4636 14.5812 15.475 14.5812 15.4864C14.5812 15.4978 14.5812 15.5093 14.5812 15.5209C14.5812 15.5324 14.5812 15.544 14.5812 15.5557C14.5812 15.5674 14.5812 15.5791 14.5812 15.5909C14.5812 15.6027 14.5812 15.6145 14.5812 15.6265C14.5812 15.6384 14.5812 15.6504 14.5812 15.6624C14.5812 15.6744 14.5812 15.6865 14.5812 15.6987C14.5812 15.7108 14.5812 15.7231 14.5812 15.7353C14.5812 15.7476 14.5812 15.76 14.5812 15.7724C14.5812 15.7848 14.5812 15.7972 14.5812 15.8097C14.5812 15.8223 14.5812 15.8348 14.5812 15.8475C14.5812 15.8601 14.5812 15.8728 14.5812 15.8856C14.5812 15.8983 14.5812 15.9111 14.5812 15.924C14.5812 15.9369 14.5812 15.9498 14.5812 15.9628C14.5812 15.9758 14.5812 15.9888 14.5812 16.0019C14.5812 16.015 14.5812 16.0282 14.5812 16.0414C14.5812 16.0546 14.5812 16.0679 14.5812 16.0812C14.5812 16.0946 14.5812 16.108 14.5812 16.1214C14.5812 16.1348 14.5812 16.1483 14.5812 16.1619C14.5812 16.1755 14.5812 16.1891 14.5812 16.2028C14.5812 16.2164 14.5812 16.2302 14.5812 16.2439C14.5812 16.2577 14.5812 16.2716 14.5812 16.2855C14.5812 16.2994 14.5812 16.3133 14.5812 16.3273C14.5812 16.3413 14.5812 16.3554 14.5812 16.3695C14.5812 16.3836 14.5812 16.3978 14.5812 16.412C14.5812 16.4262 14.5812 16.4405 14.5812 16.4548C14.5812 16.4692 14.5812 16.4836 14.5812 16.498C14.5812 16.5124 14.5812 16.5269 14.5812 16.5415C14.5812 16.556 14.5812 16.5706 14.5812 16.5853C14.5812 16.5999 14.5812 16.6146 14.5812 16.6294C14.5812 16.6442 14.5812 16.659 14.5812 16.6738C14.5812 16.6887 14.5812 16.7036 14.5812 16.7186C14.5812 16.7336 14.5812 16.7486 14.5812 16.7637C14.5812 16.7787 14.5812 16.7939 14.5812 16.809C14.5812 16.8242 14.5812 16.8394 14.5812 16.8547C14.5812 16.87 14.5812 16.8853 14.5812 16.9007C14.5812 16.9161 14.5812 16.9315 14.5812 16.947C14.5812 16.9625 14.5812 16.978 14.5812 16.9936C14.5812 17.0092 14.5812 17.0248 14.5812 17.0405C14.5812 17.0562 14.5812 17.0719 14.5812 17.0877C14.5812 17.1035 14.5812 17.1193 14.5812 17.1352C14.5812 17.151 14.5812 17.167 14.5812 17.1829C14.5812 17.1989 14.5812 17.2149 14.5812 17.231C14.5812 17.2471 14.5812 17.2632 14.5812 17.2794C14.5812 17.2956 14.5812 17.3118 14.5812 17.328C14.5812 17.3443 14.5812 17.3606 14.5812 17.377C14.5812 17.3933 14.5812 17.4097 14.5812 17.4262C14.5812 17.4427 14.5812 17.4592 14.5812 17.4757C14.5812 17.4922 14.5812 17.5088 14.5812 17.5255C14.5812 17.5421 14.5812 17.5588 14.5812 17.5755C14.5812 17.5923 14.5812 17.6091 14.5812 17.6259C14.5812 17.6427 14.5812 17.6596 14.5812 17.6765C14.5812 17.6934 14.5812 17.7104 14.5812 17.7274C14.5812 17.7444 14.5812 17.7614 14.5812 17.7785C14.5812 17.7956 14.5812 17.8128 14.5812 17.83C14.5812 17.8471 14.5812 17.8644 14.5812 17.8816C14.5812 17.8989 14.5812 17.9162 14.5812 17.9336C14.5812 17.951 14.5812 17.9684 14.5812 17.9858C14.5812 18.0033 14.5812 18.0208 14.5812 18.0383C14.5812 18.0558 14.5812 18.0734 14.5812 18.091C14.5812 18.1086 14.5812 18.1263 14.5812 18.144C14.5812 18.1617 14.5812 18.1795 14.5812 18.1972C14.5812 18.215 14.5812 18.2329 14.5812 18.2507C14.5812 18.2686 14.5812 18.2865 14.5812 18.3045C14.5812 18.3224 14.5812 18.3404 14.5812 18.3585C14.5812 18.3765 14.5812 18.3946 14.5812 18.4127C14.5812 18.4308 14.5812 18.449 14.5812 18.4672C14.5812 18.4854 14.5812 18.5036 14.5812 18.5219C14.5812 18.5402 14.5812 18.5585 14.5812 18.5769C14.5812 18.5952 14.5812 18.6136 14.5812 18.6321C14.5812 18.6505 14.5812 18.669 14.5812 18.6875C14.5812 18.706 14.5812 18.7246 14.5812 18.7432C14.5812 18.7618 14.5812 18.7804 14.5812 18.7991C14.5812 18.8178 14.5812 18.8365 14.5812 18.8552C14.5812 18.874 14.5812 18.8927 14.5812 18.9116C14.5812 18.9304 14.5812 18.9493 14.5812 18.9682C14.5812 18.9871 14.5812 19.006 14.5812 19.025C14.5812 19.0439 14.5812 19.0629 14.5812 19.082C14.5812 19.101 14.5812 19.1201 14.5812 19.1392C14.5812 19.1584 14.5812 19.1775 14.5812 19.1967C14.5812 19.2159 14.5812 19.2351 14.5812 19.2544C14.5812 19.2737 14.5812 19.293 14.5812 19.3123C14.5812 19.3316 14.5812 19.351 14.5812 19.3704C14.5812 19.3898 14.5812 19.4092 14.5812 19.4287C14.5812 19.4482 14.5812 19.4677 14.5812 19.4872C14.5812 19.5068 14.5812 19.5264 14.5812 19.546C14.5812 19.5656 14.5812 19.5852 14.5812 19.6049C14.5812 19.6246 14.5812 19.6443 14.5812 19.664C14.5812 19.6838 14.5812 19.7036 14.5812 19.7234C14.5812 19.7432 14.5812 19.763 14.5812 19.7829C14.5812 19.8028 14.5812 19.8227 14.5812 19.8426C14.5812 19.8626 14.5812 19.8826 14.5812 19.9026C14.5812 19.9226 14.5812 19.9426 14.5812 19.9627C14.5812 19.9827 14.5812 20.0028 14.5812 20.023C14.5812 20.0431 14.5812 20.0633 14.5812 20.0835C14.5812 20.1037 14.5812 20.1239 14.5812 20.1441C14.5812 20.1644 14.5812 20.1847 14.5812 20.205C14.5812 20.2253 14.5812 20.2457 14.5812 20.266C14.5812 20.2864 14.5812 20.3068 14.5812 20.3273C14.5812 20.3477 14.5812 20.3682 14.5812 20.3887C14.5812 20.4092 14.5812 20.4297 14.5812 20.4502C14.5812 20.4708 14.5812 20.4914 14.5812 20.512C14.5812 20.5326 14.5812 20.5532 14.5812 20.5739C14.5812 20.5946 14.5812 20.6153 14.5812 20.636C14.5812 20.6567 14.5812 20.6775 14.5812 20.6982C14.5812 20.719 14.5812 20.7398 14.5812 20.7607C14.5812 20.7815 14.5812 20.8024 14.5812 20.8232C14.5812 20.8441 14.5812 20.8651 14.5812 20.886C14.5812 20.9069 14.5812 20.9279 14.5812 20.9489C14.5812 20.9699 14.5812 20.9909 14.5812 21.012C14.5812 21.033 14.5812 21.0541 14.5812 21.0752C14.5812 21.0963 14.5812 21.1174 14.5812 21.1385C14.5812 21.1597 14.5812 21.1809 14.5812 21.2021C14.5812 21.2233 14.5812 21.2445 14.5812 21.2657C14.5812 21.287 14.5812 21.3083 14.5812 21.3296C14.5812 21.3509 14.5812 21.3722 14.5812 21.3935C14.5812 21.4149 14.5812 21.4362 14.5812 21.4576C14.5812 21.479 14.5812 21.5004 14.5812 21.5219C14.5812 21.5433 14.5812 21.5648 14.5812 21.5863C14.5812 21.6078 14.5812 21.6293 14.5812 21.6508C14.5812 21.6723 14.5812 21.6939 14.5812 21.7155C14.5812 21.737 14.5812 21.7586 14.5812 21.7802C14.5812 21.8019 14.5812 21.8235 14.5812 21.8452C14.5812 21.8668 14.5812 21.8885 14.5812 21.9102C14.5812 21.9319 14.5812 21.9537 14.5812 21.9754C14.5812 21.9972 14.5812 22.0189 14.5812 22.0407C14.5812 22.0625 14.5812 22.0843 14.5812 22.1061C14.5812 22.128 14.5812 22.1498 14.5812 22.1717C14.5812 22.1936 14.5812 22.2155 14.5812 22.2374C14.5812 22.2593 14.5812 22.2812 14.5812 22.3032C14.5812 22.3251 14.5812 22.3471 14.5812 22.3691C14.5812 22.391 14.5812 22.413 14.5812 22.4351C14.5812 22.4571 14.5812 22.4791 14.5812 22.5012C14.5812 22.5233 14.5812 22.5453 14.5812 22.5674C14.5812 22.5895 14.5812 22.6116 14.5812 22.6338C14.5812 22.6559 14.5812 22.6781 14.5812 22.7002C14.5812 22.7224 14.5812 22.7446 14.5812 22.7668C14.5812 22.789 14.5812 22.8112 14.5812 22.8334C14.5812 22.8557 14.5812 22.8779 14.5812 22.9002C14.5812 22.9224 14.5812 22.9447 14.5812 22.967C14.5812 22.9893 14.5812 23.0116 14.5812 23.034C14.5812 23.0563 14.5812 23.0786 14.5812 23.101C14.5812 23.1234 14.5812 23.1457 14.5812 23.1681C14.5812 23.1905 14.5812 23.2129 14.5812 23.2353C14.5812 23.2578 14.5812 23.2802 14.5812 23.3027C14.5812 23.3251 14.5812 23.3476 14.5812 23.37C14.5812 23.3925 14.5812 23.415 14.5812 23.4375C14.5812 23.46 14.5812 23.4825 14.5812 23.5051C14.5812 23.5276 14.5812 23.5501 14.5812 23.5727C14.5812 23.5953 14.5812 23.6178 14.5812 23.6404C14.5812 23.663 14.5812 23.6856 14.5812 23.7082C14.5812 23.7308 14.5812 23.7534 14.5812 23.776C14.5812 23.7987 14.5812 23.8213 14.5812 23.844C14.5812 23.8666 14.5812 23.8893 14.5812 23.912C14.5812 23.9346 14.5812 23.9573 14.5812 23.98C14.5812 24.0027 14.5812 24.0254 14.5812 24.0482C14.5812 24.0709 14.5812 24.0936 14.5812 24.1163C14.5812 24.1391 14.5812 24.1618 14.5812 24.1846C14.5812 24.2074 14.5812 24.2301 14.5812 24.2529C14.5812 24.2757 14.5812 24.2985 14.5812 24.3213C14.5812 24.3441 14.5812 24.3669 14.5812 24.3897C14.5812 24.4125 14.5812 24.4353 14.5812 24.4582C14.5812 24.481 14.5812 24.5038 14.5812 24.5267C14.5812 24.5495 14.5812 24.5724 14.5812 24.5953C14.5812 24.6181 14.5812 24.641 14.5812 24.6639C14.5812 24.6868 14.5812 24.7097 14.5812 24.7326C14.5812 24.7555 14.5812 24.7784 14.5812 24.8013C14.5812 24.8242 14.5812 24.8471 14.5812 24.87C14.5812 24.8929 14.5812 24.9159 14.5812 24.9388C14.5812 24.9617 14.5812 24.9847 14.5812 25.0076C14.5812 25.0306 14.5812 25.0535 14.5812 25.0765C14.5812 25.0994 14.5812 25.1224 14.5812 25.1454C14.5812 25.1683 14.5812 25.1913 14.5812 25.2143C14.5812 25.2373 14.5812 25.2603 14.5812 25.2833C14.5812 25.3062 14.5812 25.3292 14.5812 25.3522C14.5812 25.3752 14.5812 25.3982 14.5812 25.4212C14.5812 25.4442 14.5812 25.4672 14.5812 25.4903C14.5812 25.5133 14.5812 25.5363 14.5812 25.5593C14.5812 25.5823 14.5812 25.6053 14.5812 25.6284C14.5812 25.6514 14.5812 25.6744 14.5812 25.6975C14.5812 25.7205 14.5812 25.7435 14.5812 25.7666C14.5812 25.7896 14.5812 25.8126 14.5812 25.8357C14.5812 25.8587 14.5812 25.8817 14.5812 25.9048C14.5812 25.9278 14.5812 25.9509 14.5812 25.9739C14.5812 25.997 14.5812 26.02 14.5812 26.043C14.5812 26.0661 14.5812 26.0891 14.5812 26.1122C14.5812 26.1352 14.5812 26.1583 14.5812 26.1813C14.5812 26.2044 14.5812 26.2274 14.5812 26.2505C14.5812 26.2735 14.5812 26.2966 14.5812 26.3196C14.5812 26.3427 14.5812 26.3657 14.5812 26.3887C14.5812 26.4118 14.5812 26.4348 14.5812 26.4579C14.5812 26.4809 14.5812 26.504 14.5812 26.527C14.5812 26.55 14.5812 26.5731 14.5812 26.5961C14.5812 26.6192 14.5812 26.6422 14.5812 26.6652C14.5812 26.6883 14.5812 26.7113 14.5812 26.7343C14.5812 26.7573 14.5812 26.7804 14.5812 26.8034C14.5812 26.8264 14.5812 26.8494 14.5812 26.8724C14.5812 26.8955 14.5812 26.9185 14.5812 26.9415C14.5812 26.9645 14.5812 26.9875 14.5812 27.0105C14.5812 27.0335 14.5812 27.0565 14.5812 27.0795C14.5812 27.1025 14.5812 27.1255 14.5812 27.1485C14.5812 27.1714 14.5812 27.1944 14.5812 27.2174C14.5812 27.2404 14.5812 27.2633 14.5812 27.2863C14.5812 27.3093 14.5812 27.3322 14.5812 27.3552C14.5812 27.3781 14.5812 27.4011 14.5812 27.424C14.5812 27.447 14.5812 27.4699 14.5812 27.4928C14.5812 27.5158 14.5812 27.5387 14.5812 27.5616C14.5812 27.5845 14.5812 27.6074 14.5812 27.6303C14.5812 27.6532 14.5812 27.6761 14.5812 27.699C14.5812 27.7219 14.5812 27.7448 14.5812 27.7677C14.5812 27.7906 14.5812 27.8134 14.5812 27.8363C14.5812 27.8591 14.5812 27.882 14.5812 27.9048C14.5812 27.9277 14.5812 27.9505 14.5812 27.9733C14.5812 27.9962 14.5812 28.019 14.5812 28.0418C14.5812 28.0646 14.5812 28.0874 14.5812 28.1102C14.5812 28.133 14.5812 28.1558 14.5812 28.1785C14.5812 28.2013 14.5812 28.2241 14.5812 28.2468C14.5812 28.2696 14.5812 28.2923 14.5812 28.315C14.5812 28.3378 14.5812 28.3605 14.5812 28.3832C14.5812 28.4059 14.5812 28.4286 14.5812 28.4513C14.5812 28.474 14.5812 28.4967 14.5812 28.5193C14.5812 28.542 14.5812 28.5646 14.5812 28.5873C14.5812 28.6099 14.5812 28.6326 14.5812 28.6552C14.5812 28.6778 14.5812 28.7004 14.5812 28.723C14.5812 28.7456 14.5812 28.7682 14.5812 28.7908C14.5812 28.8133 14.5812 28.8359 14.5812 28.8584C14.5812 28.881 14.5812 28.9035 14.5812 28.926C14.5812 28.9486 14.5812 28.9711 14.5812 28.9935C14.5812 29.016 14.5812 29.0385 14.5812 29.061C14.5812 29.0834 14.5812 29.1059 14.5812 29.1283C14.5812 29.1508 14.5812 29.1732 14.5812 29.1956C14.5812 29.218 14.5812 29.2404 14.5812 29.2628C14.5812 29.2852 14.5812 29.3075 14.5812 29.3299C14.5812 29.3522 14.5812 29.3745 14.5812 29.3969C14.5812 29.4192 14.5812 29.4415 14.5812 29.4638C14.5812 29.486 14.5812 29.5083 14.5812 29.5306C14.5812 29.5528 14.5812 29.5751 14.5812 29.5973C14.5812 29.6195 14.5812 29.6417 14.5812 29.6639C14.5812 29.6861 14.5812 29.7082 14.5812 29.7304C14.5812 29.7525 14.5812 29.7747 14.5812 29.7968C14.5812 29.8189 14.5812 29.841 14.5812 29.8631C14.5812 29.8852 14.5812 29.9072 14.5812 29.9293C14.5812 29.9513 14.5812 29.9733 14.5812 29.9953C14.5812 30.0174 14.5812 30.0393 14.5812 30.0613C14.5812 30.0833 14.5812 30.1052 14.5812 30.1272C14.5812 30.1491 14.5812 30.171 14.5812 30.1929C14.5812 30.2148 14.5812 30.2367 14.5812 30.2585C14.5812 30.2804 14.5812 30.3022 14.5812 30.324C14.5812 30.3458 14.5812 30.3676 14.5812 30.3894C14.5812 30.4112 14.5812 30.4329 14.5812 30.4546C14.5812 30.4764 14.5812 30.4981 14.5812 30.5198C14.5812 30.5415 14.5812 30.5631 14.5812 30.5848C14.5812 30.6064 14.5812 30.628 14.5812 30.6496C14.5812 30.6712 14.5812 30.6928 14.5812 30.7144C14.5812 30.7359 14.5812 30.7575 14.5812 30.779C14.5812 30.8005 14.5812 30.822 14.5812 30.8434C14.5812 30.8649 14.5812 30.8863 14.5812 30.9078C14.5812 30.9292 14.5812 30.9506 14.5812 30.9719C14.5812 30.9933 14.5812 31.0147 14.5812 31.036C14.5812 31.0573 14.5812 31.0786 14.5812 31.0999C14.5812 31.1212 14.5812 31.1424 14.5812 31.1636C14.5812 31.1849 14.5812 31.2061 14.5812 31.2272C14.5812 31.2484 14.5812 31.2696 14.5812 31.2907C14.5812 31.3118 14.5812 31.3329 14.5812 31.354C14.5812 31.3751 14.5812 31.3961 14.5812 31.4172C14.5812 31.4382 14.5812 31.4592 14.5812 31.4801C14.5812 31.5011 14.5812 31.5221 14.5812 31.543C14.5812 31.5639 14.5812 31.5848 14.5812 31.6057C14.5812 31.6265 14.5812 31.6474 14.5812 31.6682C14.5812 31.689 14.5812 31.7098 14.5812 31.7305C14.5812 31.7513 14.5812 31.772 14.5812 31.7927C14.5812 31.8134 14.5812 31.8341 14.5812 31.8547C14.5812 31.8753 14.5812 31.896 14.5812 31.9165C14.5812 31.9371 14.5812 31.9577 14.5812 31.9782C14.5812 31.9987 14.5812 32.0192 14.5812 32.0397C14.5812 32.0602 14.5812 32.0806 14.5812 32.101C14.5812 32.1214 14.5812 32.1418 14.5812 32.1622C14.5812 32.1825 14.5812 32.2028 14.5812 32.2231C14.5812 32.2434 14.5812 32.2637 14.5812 32.2839C14.5812 32.3041 14.5812 32.3243 14.5812 32.3445C14.5812 32.3647 14.5812 32.3848 14.5812 32.4049C14.5812 32.425 14.5812 32.4451 14.5812 32.4651C14.5812 32.4852 14.5812 32.5052 14.5812 32.5252C14.5812 32.5451 14.5812 32.5651 14.5812 32.585C14.5812 32.6049 14.5812 32.6248 14.5812 32.6446C14.5812 32.6645 14.5812 32.6843 14.5812 32.7041C14.5812 32.7239 14.5812 32.7436 14.5812 32.7633C14.5812 32.7831 14.5812 32.8027 14.5812 32.8224C14.5812 32.842 14.5812 32.8616 14.5812 32.8812C14.5812 32.9008 14.5812 32.9204 14.5812 32.9399C14.5812 32.9594 14.5812 32.9789 14.5812 32.9983C14.5812 33.0177 14.5812 33.0371 14.5812 33.0565C14.5812 33.0759 14.5812 33.0952 14.5812 33.1145C14.5812 33.1338 14.5812 33.1531 14.5812 33.1723C14.5812 33.1916 14.5812 33.2108 14.5812 33.2299C14.5812 33.2491 14.5812 33.2682 14.5812 33.2873C14.5812 33.3064 14.5812 33.3254 14.5812 33.3444C14.5812 33.3635 14.5812 33.3824 14.5812 33.4014C14.5812 33.4203 14.5812 33.4392 14.5812 33.4581C14.5812 33.477 14.5812 33.4958 14.5812 33.5146C14.5812 33.5334 14.5812 33.5521 14.5812 33.5708C14.5812 33.5895 14.5812 33.6082 14.5812 33.6269C14.5812 33.6455 14.5812 33.6641 14.5812 33.6827C14.5812 33.7012 14.5812 33.7197 14.5812 33.7382C14.5812 33.7567 14.5812 33.7751 14.5812 33.7936C14.5812 33.812 14.5812 33.8303 14.5812 33.8486C14.5812 33.867 14.5812 33.8853 14.5812 33.9035C14.5812 33.9217 14.5812 33.94 14.5812 33.9581C14.5812 33.9763 14.5812 33.9944 14.5812 34.0125C14.5812 34.0306 14.5812 34.0486 14.5812 34.0666C14.5812 34.0846 14.5812 34.1026 14.5812 34.1205C14.5812 34.1384 14.5812 34.1563 14.5812 34.1741C14.5812 34.192 14.5812 34.2098 14.5812 34.2275C14.5812 34.2453 14.5812 34.263 14.5812 34.2806C14.5812 34.2983 14.5812 34.3159 14.5812 34.3335C14.5812 34.3511 14.5812 34.3686 14.5812 34.3861C14.5812 34.4036 14.5812 34.4211 14.5812 34.4385C14.5812 34.4559 14.5812 34.4733 14.5812 34.4906C14.5812 34.5079 14.5812 34.5252 14.5812 34.5424C14.5812 34.5597 14.5812 34.5768 14.5812 34.594C14.5812 34.6111 14.5812 34.6282 14.5812 34.6453C14.5812 34.6624 14.5812 34.6794 14.5812 34.6963C14.5812 34.7133 14.5812 34.7302 14.5812 34.7471C14.5812 34.764 14.5812 34.7808 14.5812 34.7976C14.5812 34.8144 14.5812 34.8311 14.5812 34.8478C14.5812 34.8645 14.5812 34.8811 14.5812 34.8977C14.5812 34.9143 14.5812 34.9309 14.5812 34.9474C14.5812 34.9639 14.5812 34.9804 14.5812 34.9968C14.5812 35.0132 14.5812 35.0296 14.5812 35.0459C14.5812 35.0622 14.5812 35.0785 14.5812 35.0947C14.5812 35.1109 14.5812 35.1271 14.5812 35.1432C14.5812 35.1593 14.5812 35.1754 14.5812 35.1915C14.5812 35.2075 14.5812 35.2235 14.5812 35.2394C14.5812 35.2553 14.5812 35.2712 14.5812 35.287C14.5812 35.3029 14.5812 35.3187 14.5812 35.3344C14.5812 35.3501 14.5812 35.3658 14.5812 35.3815C14.5812 35.3971 14.5812 35.4127 14.5812 35.4282C14.5812 35.4438 14.5812 35.4593 14.5812 35.4747C14.5812 35.4901 14.5812 35.5055 14.5812 35.5208C14.5812 35.5362 14.5812 35.5515 14.5812 35.5667C14.5812 35.5819 14.5812 35.5971 14.5812 35.6122C14.5812 35.6274 14.5812 35.6425 14.5812 35.6575C14.5812 35.6725 14.5812 35.6875 14.5812 35.7024C14.5812 35.7173 14.5812 35.7322 14.5812 35.747C14.5812 35.7618 14.5812 35.7766 14.5812 35.7913C14.5812 35.806 14.5812 35.8207 14.5812 35.8353C14.5812 35.8499 14.5812 35.8645 14.5812 35.879C14.5812 35.8935 14.5812 35.9079 14.5812 35.9223C14.5812 35.9367 14.5812 35.951 14.5812 35.9653C14.5812 35.9796 14.5812 35.9938 14.5812 36.008C14.5812 36.0222 14.5812 36.0363 14.5812 36.0504C14.5812 36.0644 14.5812 36.0784 14.5812 36.0924C14.5812 36.1064 14.5812 36.1203 14.5812 36.1341C14.5812 36.148 14.5812 36.1617 14.5812 36.1755C14.5812 36.1892 14.5812 36.2029 14.5812 36.2165C14.5812 36.2301 14.5812 36.2437 14.5812 36.2572C14.5812 36.2707 14.5812 36.2842 14.5812 36.2976C14.5812 36.311 14.5812 36.3243 14.5812 36.3376C14.5812 36.3509 14.5812 36.3641 14.5812 36.3773C14.5812 36.3904 14.5812 36.4035 14.5812 36.4166C14.5812 36.4296 14.5812 36.4426 14.5812 36.4556C14.5812 36.4685 14.5812 36.4814 14.5812 36.4942C14.5812 36.507 14.5812 36.5198 14.5812 36.5325C14.5812 36.5452 14.5812 36.5578 14.5812 36.5704C14.5812 36.583 14.5812 36.5955 14.5812 36.608C14.5812 36.6205 14.5812 36.6329 14.5812 36.6452C14.5812 36.6576 14.5812 36.6698 14.5812 36.6821C14.5812 36.6943 14.5812 36.7065 14.5812 36.7186C14.5812 36.7307 14.5812 36.7427 14.5812 36.7547C14.5812 36.7667 14.5812 36.7786 14.5812 36.7905C14.5812 36.8023 14.5812 36.8141 14.5812 36.8259C14.5812 36.8376 14.5812 36.8493 14.5812 36.8609C14.5812 36.8725 14.5812 36.8841 14.5812 36.8956C14.5812 36.907 14.5812 36.9185 14.5812 36.9298C14.5812 36.9412 14.5812 36.9525 14.5812 36.9638C14.5812 36.975 14.5812 36.9862 14.5812 36.9973C14.5812 37.0084 14.5812 37.0195 14.5812 37.0304C14.5812 37.0414 14.5812 37.0524 14.5812 37.0632C14.5812 37.0741 14.5812 37.0849 14.5812 37.0956C14.5812 37.1063 14.5812 37.117 14.5812 37.1276C14.5812 37.1382 14.5812 37.1487 14.5812 37.1592C14.5812 37.1697 14.5812 37.1801 14.5812 37.1904C14.5812 37.2008 14.5812 37.2111 14.5812 37.2213C14.5812 37.2315 14.5812 37.2416 14.5812 37.2517C14.5812 37.2618 14.5812 37.2718 14.5812 37.2818C14.5812 37.2917 14.5812 37.3016 14.5812 37.3114C14.5812 37.3212 14.5812 37.331 14.5812 37.3407C14.5812 37.3504 14.5812 37.36 14.5812 37.3695C14.5812 37.3791 14.5812 37.3885 14.5812 37.398C14.5812 37.4074 14.5812 37.4167 14.5812 37.426C14.5812 37.4353 14.5812 37.4445 14.5812 37.4536C14.5812 37.4628 14.5812 37.4718 14.5812 37.4809C14.5812 37.4899 14.5812 37.4988 14.5812 37.5077C14.5812 37.5165 14.5812 37.5253 14.5812 37.5341C14.5812 37.5428 14.5812 37.5515 14.5812 37.56C14.5812 37.5686 14.5812 37.5772 14.5812 37.5856C14.5812 37.5941 14.5812 37.6024 14.5812 37.6107C14.5812 37.6191 14.5812 37.6273 14.5812 37.6355C14.5812 37.6436 14.5812 37.6517 14.5812 37.6598C14.5812 37.6678 14.5812 37.6758 14.5812 37.6836C14.5812 37.6915 14.5812 37.6993 14.5812 37.7071C14.5812 37.7148 14.5812 37.7225 14.5812 37.7301C14.5812 37.7377 14.5812 37.7452 14.5812 37.7527C14.5812 37.7601 14.5812 37.7675 14.5812 37.7748C14.5812 37.7822 14.5812 37.7894 14.5812 37.7966C14.5812 37.8037 14.5812 37.8108 14.5812 37.8178C14.5812 37.8249 14.5812 37.8318 14.5812 37.8387C14.5812 37.8455 14.5812 37.8523 14.5812 37.8591C14.5812 37.8658 14.5812 37.8724 14.5812 37.879C14.5812 37.8856 14.5812 37.8921 14.5812 37.8985C14.5812 37.905 14.5812 37.9113 14.5812 37.9176C14.5812 37.9239 14.5812 37.9301 14.5812 37.9362C14.5812 37.9423 14.5812 37.9484 14.5812 37.9544C14.5812 37.9603 14.5812 37.9662 14.5812 37.9721C14.5812 37.9779 14.5812 37.9836 14.5812 37.9893C14.5812 37.995 14.5812 38.0006 14.5812 38.0061C14.5812 38.0116 14.5812 38.0171 14.5812 38.0224C14.5812 38.0278 14.5812 38.0331 14.5812 38.0383C14.5812 38.0435 14.5812 38.0486 14.5812 38.0537C14.5812 38.0588 14.5812 38.0637 14.5812 38.0686C14.5812 38.0735 14.5812 38.0784 14.5812 38.0831C14.5812 38.0879 14.5812 38.0925 14.5812 38.0971C14.5812 38.1017 14.5812 38.1062 14.5812 38.1106C14.5812 38.1151 14.5812 38.1194 14.5812 38.1237C14.5812 38.128 14.5812 38.1322 14.5812 38.1363C14.5812 38.1404 14.5812 38.1444 14.5812 38.1484C14.5812 38.1523 14.5812 38.1562 14.5812 38.16C14.5812 38.1638 14.5812 38.1675 14.5812 38.1711C14.5812 38.1748 14.5812 38.1783 14.5812 38.1818C14.5812 38.1853 14.5812 38.1887 14.5812 38.192C14.5812 38.1953 14.5812 38.1985 14.5812 38.2016C14.5812 38.2048 14.5812 38.2079 14.5812 38.2108C14.5812 38.2138 14.5812 38.2167 14.5812 38.2195C14.5812 38.2224 14.5812 38.2251 14.5812 38.2277C14.5812 38.2304 14.5812 38.233 14.5812 38.2355C14.5812 38.2379 14.5812 38.2403 14.5812 38.2427C14.5812 38.245 14.5812 38.2472 14.5812 38.2494H16.5812ZM21.0753 14.1108V31.5102H23.0753V14.1108H21.0753ZM37.8818 28.2216C39.0483 28.2216 39.4848 28.6976 39.6927 29.0635C39.8152 29.2792 39.881 29.5044 39.9146 29.6822C39.9311 29.769 39.9388 29.8388 39.9423 29.8824C39.9441 29.9039 39.9448 29.9185 39.945 29.9249C39.9451 29.928 39.9451 29.9291 39.9451 29.9279C39.9451 29.9273 39.9451 29.9261 39.9451 29.9243C39.9451 29.9235 39.945 29.9224 39.945 29.9213C39.945 29.9207 39.945 29.9201 39.945 29.9194C39.945 29.9191 39.945 29.9185 39.945 29.9184C39.945 29.9178 39.945 29.9173 40.945 29.9173C41.945 29.9173 41.945 29.9167 41.945 29.9161C41.945 29.9159 41.945 29.9153 41.945 29.9149C41.945 29.9141 41.945 29.9132 41.945 29.9123C41.945 29.9105 41.945 29.9085 41.945 29.9063C41.9449 29.902 41.9449 29.8969 41.9448 29.8912C41.9446 29.8798 41.9442 29.8657 41.9436 29.8492C41.9423 29.816 41.94 29.7727 41.9358 29.7205C41.9273 29.6167 41.9111 29.4758 41.8797 29.31C41.8176 28.9823 41.6919 28.5337 41.4316 28.0754C40.8736 27.0935 39.7785 26.2216 37.8818 26.2216V28.2216ZM37.5142 56.3642H19.7472V58.3642H37.5142V56.3642ZM10.5084 44.0328C10.0745 43.4362 9.4091 42.9536 8.758 42.5733C8.08864 42.1824 7.342 41.8474 6.65871 41.5767C5.97208 41.3048 5.32928 41.0901 4.85921 40.9435C4.62356 40.87 4.42981 40.8132 4.29381 40.7745C4.22577 40.7551 4.17209 40.7402 4.13474 40.7299C4.11606 40.7248 4.10145 40.7209 4.09116 40.7181C4.08602 40.7167 4.08196 40.7156 4.079 40.7148C4.07752 40.7144 4.07632 40.7141 4.07541 40.7139C4.07495 40.7138 4.07456 40.7137 4.07424 40.7136C4.07408 40.7135 4.07389 40.7135 4.07381 40.7135C4.07365 40.7134 4.0735 40.7134 3.81821 41.6802C3.56292 42.6471 3.5628 42.6471 3.56271 42.647C3.5627 42.647 3.56262 42.647 3.5626 42.647C3.56256 42.647 3.5626 42.647 3.5627 42.647C3.5629 42.6471 3.56339 42.6472 3.56414 42.6474C3.56565 42.6478 3.56825 42.6485 3.57191 42.6495C3.57922 42.6515 3.59078 42.6546 3.60633 42.6589C3.63745 42.6674 3.68451 42.6804 3.74558 42.6978C3.86778 42.7327 4.04569 42.7848 4.26384 42.8528C4.70135 42.9893 5.2947 43.1877 5.92229 43.4362C6.55321 43.6861 7.19887 43.9789 7.7494 44.3004C8.31819 44.6326 8.70027 44.947 8.89095 45.2091L10.5084 44.0328ZM15.5812 14.1108C16.5812 14.1108 16.5812 14.1114 16.5812 14.1119C16.5812 14.112 16.5812 14.1126 16.5812 14.1129C16.5812 14.1136 16.5812 14.1142 16.5812 14.1147C16.5811 14.1159 16.5811 14.1169 16.5811 14.1177C16.5811 14.1194 16.5811 14.1205 16.5811 14.121C16.5811 14.1219 16.5811 14.1205 16.5812 14.1168C16.5815 14.1095 16.5823 14.0935 16.5841 14.0702C16.5879 14.0232 16.5962 13.9484 16.6137 13.8556C16.6494 13.6659 16.7192 13.425 16.85 13.1938C17.0743 12.7968 17.5418 12.2926 18.767 12.2926L18.767 10.2926C16.8063 10.2926 15.6809 11.1975 15.1088 12.2097C14.8413 12.683 14.712 13.1466 14.6482 13.4853C14.6159 13.6567 14.5993 13.8021 14.5906 13.9092C14.5863 13.963 14.5839 14.0075 14.5826 14.0415C14.582 14.0585 14.5816 14.0729 14.5814 14.0845C14.5813 14.0903 14.5813 14.0954 14.5812 14.0998C14.5812 14.102 14.5812 14.104 14.5812 14.1058C14.5812 14.1068 14.5812 14.1076 14.5812 14.1085C14.5812 14.1089 14.5812 14.1095 14.5812 14.1097C14.5812 14.1102 14.5812 14.1108 15.5812 14.1108ZM18.767 12.2926C20.0719 12.2926 20.5681 12.8139 20.7993 13.2079C20.9341 13.4375 21.0057 13.6758 21.0422 13.8625C21.0601 13.9539 21.0685 14.0274 21.0723 14.0733C21.0742 14.096 21.075 14.1115 21.0753 14.1183C21.0754 14.1216 21.0754 14.1228 21.0754 14.1217C21.0754 14.1211 21.0753 14.1199 21.0753 14.1181C21.0753 14.1172 21.0753 14.1161 21.0753 14.1149C21.0753 14.1143 21.0753 14.1137 21.0753 14.113C21.0753 14.1126 21.0753 14.1121 21.0753 14.1119C21.0753 14.1114 21.0753 14.1108 22.0753 14.1108C23.0753 14.1108 23.0753 14.1102 23.0753 14.1096C23.0753 14.1094 23.0753 14.1088 23.0753 14.1084C23.0753 14.1075 23.0753 14.1066 23.0753 14.1057C23.0753 14.1038 23.0753 14.1017 23.0752 14.0995C23.0752 14.0949 23.0751 14.0897 23.075 14.0838C23.0748 14.072 23.0744 14.0573 23.0737 14.0401C23.0724 14.0056 23.0699 13.9604 23.0653 13.9062C23.0563 13.7979 23.0388 13.6512 23.005 13.4785C22.9381 13.1367 22.8029 12.6704 22.5242 12.1955C21.9283 11.1804 20.7704 10.2926 18.767 10.2926L18.767 12.2926ZM25.1386 24.9133C26.3732 24.9133 26.8063 25.3575 26.9835 25.6269C27.0917 25.7914 27.1485 25.9608 27.1772 26.0918C27.1912 26.1559 27.1975 26.2061 27.2002 26.2349C27.2016 26.2491 27.202 26.2575 27.202 26.259C27.2021 26.2598 27.202 26.2588 27.202 26.2559C27.2019 26.2545 27.2019 26.2525 27.2019 26.2501C27.2019 26.2489 27.2019 26.2476 27.2018 26.2461C27.2018 26.2454 27.2018 26.2446 27.2018 26.2438C27.2018 26.2434 27.2018 26.2428 27.2018 26.2426C27.2018 26.242 27.2018 26.2414 28.2018 26.2414C29.2018 26.2414 29.2018 26.2407 29.2018 26.24C29.2018 26.2398 29.2018 26.2391 29.2018 26.2387C29.2018 26.2377 29.2018 26.2368 29.2018 26.2358C29.2018 26.2337 29.2018 26.2316 29.2018 26.2292C29.2017 26.2246 29.2016 26.2193 29.2015 26.2135C29.2013 26.2018 29.2008 26.1877 29.2001 26.1714C29.1987 26.1388 29.1961 26.0972 29.1915 26.0478C29.1822 25.9492 29.1646 25.8175 29.1308 25.6634C29.0638 25.3579 28.9291 24.9453 28.6543 24.5277C28.0658 23.6331 26.9672 22.9133 25.1386 22.9133V24.9133ZM27.2018 26.2414V32.3679H29.2018V26.2414H27.2018ZM23.0753 31.5102V26.2414H21.0753V31.5102H23.0753ZM22.0753 26.2414C23.0753 26.2414 23.0753 26.242 23.0753 26.2426C23.0753 26.2428 23.0753 26.2434 23.0753 26.2438C23.0753 26.2446 23.0753 26.2454 23.0753 26.2461C23.0753 26.2476 23.0753 26.2489 23.0753 26.2501C23.0752 26.2525 23.0752 26.2545 23.0752 26.2559C23.0751 26.2588 23.075 26.2598 23.0751 26.259C23.0751 26.2575 23.0756 26.2491 23.0769 26.2349C23.0796 26.2061 23.0859 26.1559 23.0999 26.0918C23.1287 25.9608 23.1854 25.7914 23.2936 25.6269C23.4709 25.3575 23.9039 24.9133 25.1386 24.9133V22.9133C23.3099 22.9133 22.2114 23.6331 21.6228 24.5277C21.3481 24.9453 21.2134 25.3579 21.1464 25.6634C21.1126 25.8175 21.0949 25.9492 21.0857 26.0478C21.081 26.0972 21.0784 26.1388 21.077 26.1714C21.0763 26.1877 21.0759 26.2018 21.0756 26.2135C21.0755 26.2193 21.0754 26.2246 21.0754 26.2292C21.0753 26.2316 21.0753 26.2337 21.0753 26.2358C21.0753 26.2368 21.0753 26.2377 21.0753 26.2387C21.0753 26.2391 21.0753 26.2398 21.0753 26.24C21.0753 26.2407 21.0753 26.2414 22.0753 26.2414ZM29.2018 32.3679V27.4667H27.2018V32.3679H29.2018ZM28.2018 27.4667C29.2003 27.4112 29.2003 27.4119 29.2004 27.4127C29.2004 27.4129 29.2004 27.4137 29.2005 27.4141C29.2005 27.4151 29.2005 27.416 29.2006 27.4169C29.2007 27.4187 29.2008 27.4203 29.2008 27.4219C29.201 27.425 29.2011 27.4277 29.2011 27.4299C29.2013 27.4343 29.2013 27.4371 29.2013 27.4382C29.2013 27.4404 29.2012 27.4365 29.2017 27.4274C29.2028 27.4087 29.2061 27.3713 29.2162 27.3217C29.2366 27.2214 29.2817 27.0857 29.3801 26.9494C29.5416 26.7257 30.0225 26.2611 31.5102 26.2611V24.2611C29.567 24.2611 28.3937 24.8993 27.7587 25.7784C27.459 26.1935 27.3202 26.6091 27.2564 26.9224C27.2244 27.0796 27.2105 27.2145 27.2048 27.3164C27.202 27.3676 27.2012 27.4111 27.2013 27.4456C27.2014 27.4629 27.2017 27.478 27.2021 27.4908C27.2022 27.4972 27.2025 27.503 27.2027 27.5082C27.2028 27.5109 27.2029 27.5133 27.203 27.5156C27.2031 27.5168 27.2031 27.5179 27.2032 27.519C27.2032 27.5195 27.2033 27.5203 27.2033 27.5206C27.2033 27.5214 27.2034 27.5221 28.2018 27.4667ZM31.5102 26.2611C32.7676 26.2611 33.2017 26.6931 33.3692 26.9343C33.4719 27.0822 33.5248 27.233 33.5513 27.3476C33.5643 27.4038 33.57 27.4471 33.5723 27.4706C33.5735 27.4822 33.5738 27.4884 33.5738 27.4881C33.5738 27.488 33.5737 27.4863 33.5736 27.4827C33.5736 27.481 33.5735 27.4788 33.5735 27.4761C33.5735 27.4748 33.5735 27.4733 33.5734 27.4717C33.5734 27.4709 33.5734 27.4701 33.5734 27.4693C33.5734 27.4689 33.5734 27.4682 33.5734 27.468C33.5734 27.4673 33.5734 27.4667 34.5734 27.4667C35.5734 27.4667 35.5734 27.466 35.5734 27.4653C35.5734 27.465 35.5734 27.4643 35.5734 27.4638C35.5734 27.4629 35.5734 27.4618 35.5734 27.4608C35.5734 27.4587 35.5734 27.4564 35.5734 27.454C35.5733 27.4493 35.5732 27.4439 35.5731 27.4379C35.5728 27.4261 35.5724 27.4119 35.5716 27.3957C35.5701 27.3631 35.5674 27.3219 35.5626 27.2732C35.5529 27.1761 35.5347 27.0471 35.4998 26.8965C35.4306 26.5976 35.2921 26.197 35.0119 25.7935C34.4136 24.9319 33.316 24.2611 31.5102 24.2611V26.2611ZM33.5734 27.4667V33.5932H35.5734V27.4667H33.5734ZM35.5734 33.5932V29.9173H33.5734V33.5932H35.5734ZM34.5734 29.9173C35.5734 29.9072 35.5734 29.9078 35.5734 29.9083C35.5734 29.9085 35.5734 29.9091 35.5734 29.9095C35.5734 29.9102 35.5734 29.9109 35.5734 29.9115C35.5734 29.9128 35.5734 29.914 35.5734 29.915C35.5734 29.9171 35.5734 29.9185 35.5734 29.9194C35.5734 29.9211 35.5734 29.9207 35.5735 29.9181C35.5736 29.913 35.5741 29.8997 35.5757 29.8795C35.5789 29.8387 35.5862 29.772 35.6026 29.6885C35.636 29.5181 35.7028 29.2999 35.831 29.0893C36.0474 28.7336 36.5388 28.2216 37.8818 28.2216V26.2216C35.8891 26.2216 34.7263 27.0574 34.1225 28.0496C33.8405 28.5129 33.7057 28.9687 33.64 29.3036C33.6068 29.4729 33.5902 29.6168 33.5818 29.7234C33.5776 29.7769 33.5755 29.8216 33.5744 29.8559C33.5739 29.8731 33.5736 29.8878 33.5735 29.8997C33.5734 29.9057 33.5734 29.911 33.5734 29.9156C33.5734 29.9179 33.5734 29.9201 33.5734 29.922C33.5734 29.923 33.5735 29.924 33.5735 29.9249C33.5735 29.9253 33.5735 29.9259 33.5735 29.9262C33.5735 29.9268 33.5735 29.9274 34.5734 29.9173ZM39.945 50.2574C39.945 50.7785 39.7815 51.4381 39.4814 52.1831C39.1862 52.9158 38.7854 53.6667 38.3729 54.3518C37.962 55.0342 37.5494 55.6348 37.2391 56.0652C37.0843 56.2799 36.9559 56.4509 36.867 56.5672C36.8226 56.6254 36.7881 56.6697 36.7653 56.6989C36.7539 56.7135 36.7453 56.7243 36.7399 56.7311C36.7372 56.7345 36.7353 56.7369 36.7342 56.7383C36.7337 56.739 36.7333 56.7395 36.7331 56.7397C36.7331 56.7398 36.733 56.7398 36.7331 56.7398C36.7331 56.7398 36.7331 56.7397 36.7331 56.7397C36.7332 56.7396 36.7333 56.7395 37.5142 57.3642C38.295 57.9889 38.2952 57.9887 38.2953 57.9886C38.2953 57.9885 38.2955 57.9883 38.2956 57.9882C38.2958 57.9879 38.2961 57.9875 38.2965 57.9871C38.2971 57.9863 38.298 57.9851 38.2991 57.9838C38.3013 57.981 38.3043 57.9773 38.3081 57.9725C38.3157 57.9629 38.3264 57.9493 38.3401 57.9318C38.3675 57.8968 38.4068 57.8462 38.4562 57.7816C38.5549 57.6523 38.6945 57.4663 38.8614 57.2349C39.1943 56.7731 39.6395 56.1254 40.0863 55.3835C40.5315 54.6441 40.9884 53.7945 41.3365 52.9305C41.6797 52.0786 41.945 51.1454 41.945 50.2574H39.945ZM39.9452 29.9353C40.0687 36.7882 39.945 46.1895 39.945 50.2574H41.945C41.945 46.2382 42.0687 36.7736 41.9449 29.8993L39.9452 29.9353ZM19.7472 57.3642C20.7334 57.1984 20.7333 57.1983 20.7333 57.1981C20.7333 57.198 20.7333 57.1978 20.7333 57.1977C20.7332 57.1974 20.7331 57.1971 20.7331 57.1967C20.733 57.196 20.7328 57.1952 20.7327 57.1942C20.7323 57.1922 20.7319 57.1897 20.7314 57.1867C20.7303 57.1806 20.7289 57.1724 20.727 57.1621C20.7234 57.1416 20.7181 57.113 20.7112 57.077C20.6974 57.005 20.677 56.9035 20.6495 56.7789C20.5947 56.5305 20.5109 56.1866 20.3938 55.8013C20.169 55.0615 19.7865 54.0474 19.1724 53.299L17.6263 54.5676C17.9821 55.0013 18.2735 55.7026 18.4802 56.3827C18.5788 56.7074 18.6501 56.9995 18.6965 57.2098C18.7196 57.3145 18.7363 57.3978 18.747 57.4535C18.7523 57.4813 18.7561 57.5021 18.7584 57.5151C18.7596 57.5216 18.7604 57.5262 18.7608 57.5287C18.761 57.5299 18.7612 57.5307 18.7612 57.5309C18.7612 57.531 18.7612 57.531 18.7612 57.5308C18.7612 57.5307 18.7612 57.5306 18.7611 57.5305C18.7611 57.5304 18.7611 57.5303 18.7611 57.5302C18.7611 57.5301 18.761 57.5299 19.7472 57.3642ZM19.1724 53.299C17.157 50.8426 15.9093 49.817 14.7121 48.7579C13.5649 47.7431 12.4211 46.6627 10.5084 44.0328L8.89095 45.2091C10.8993 47.9706 12.1448 49.157 13.387 50.2559C14.5791 51.3105 15.7208 52.2453 17.6263 54.5676L19.1724 53.299ZM3.81821 41.6802C3.86165 40.6812 3.86214 40.6812 3.86263 40.6812C3.86278 40.6812 3.86326 40.6813 3.86356 40.6813C3.86415 40.6813 3.86471 40.6813 3.86523 40.6813C3.86626 40.6814 3.86714 40.6814 3.86786 40.6815C3.86929 40.6815 3.87011 40.6816 3.87032 40.6816C3.87075 40.6816 3.86878 40.6815 3.86458 40.6812C3.85616 40.6805 3.83898 40.679 3.81431 40.6761C3.76467 40.6703 3.68673 40.6589 3.59029 40.638C3.39335 40.5952 3.14237 40.5172 2.90116 40.3808C2.47196 40.1382 2 39.6846 2 38.617L0 38.617C0 40.49 0.937144 41.5681 1.91705 42.1219C2.38039 42.3838 2.83396 42.5203 3.16543 42.5923C3.3332 42.6288 3.47544 42.65 3.57991 42.6623C3.63231 42.6685 3.67568 42.6725 3.70854 42.6751C3.72498 42.6764 3.73884 42.6773 3.74992 42.678C3.75547 42.6783 3.76033 42.6786 3.76447 42.6788C3.76655 42.6789 3.76845 42.679 3.77016 42.6791C3.77102 42.6791 3.77183 42.6792 3.7726 42.6792C3.77299 42.6792 3.77353 42.6792 3.77372 42.6792C3.77425 42.6793 3.77477 42.6793 3.81821 41.6802ZM2 38.617C2 38.0483 2.1339 37.6887 2.28304 37.4552C2.43488 37.2176 2.64122 37.0506 2.87167 36.9304C3.10689 36.8077 3.3535 36.7414 3.5492 36.7074C3.64478 36.6908 3.72211 36.6829 3.77144 36.6792C3.79593 36.6774 3.81298 36.6766 3.82132 36.6763C3.82547 36.6762 3.8274 36.6762 3.82695 36.6762C3.82672 36.6762 3.8259 36.6762 3.82445 36.6762C3.82372 36.6762 3.82284 36.6762 3.8218 36.6762C3.82128 36.6762 3.82072 36.6762 3.82013 36.6762C3.81983 36.6762 3.81935 36.6762 3.8192 36.6762C3.81871 36.6762 3.81821 36.6762 3.81821 35.6762C3.81821 34.6762 3.81769 34.6762 3.81715 34.6762C3.81696 34.6762 3.81642 34.6762 3.81603 34.6762C3.81526 34.6762 3.81445 34.6762 3.81359 34.6762C3.81187 34.6762 3.80996 34.6763 3.80788 34.6763C3.80373 34.6763 3.79886 34.6764 3.7933 34.6765C3.78218 34.6766 3.76829 34.677 3.7518 34.6776C3.71885 34.6787 3.67535 34.6808 3.62279 34.6847C3.51799 34.6925 3.37515 34.7076 3.20652 34.737C2.87381 34.7948 2.41587 34.9124 1.94654 35.1572C1.47244 35.4046 0.974222 35.789 0.597649 36.3785C0.218374 36.9721 0 37.7153 0 38.617L2 38.617ZM3.81821 35.6762C3.9032 36.6726 3.90307 36.6726 3.90296 36.6726C3.90294 36.6726 3.90283 36.6726 3.90278 36.6726C3.90269 36.6727 3.90264 36.6727 3.90264 36.6727C3.90263 36.6727 3.9028 36.6726 3.90315 36.6726C3.90384 36.6726 3.90524 36.6724 3.90734 36.6723C3.91153 36.6719 3.9185 36.6714 3.92814 36.6706C3.94744 36.6692 3.97744 36.667 4.01733 36.6644C4.09715 36.6591 4.21643 36.652 4.3688 36.6453C4.67389 36.6319 5.10977 36.6201 5.62585 36.6269C6.66656 36.6406 7.99574 36.7298 9.22707 37.0176L9.68218 35.0701C8.25386 34.7363 6.76484 34.6417 5.65225 34.627C5.09168 34.6196 4.61714 34.6325 4.28097 34.6472C4.11272 34.6546 3.97866 34.6625 3.88529 34.6687C3.83859 34.6718 3.80204 34.6745 3.77643 34.6764C3.76363 34.6774 3.75356 34.6782 3.74632 34.6788C3.7427 34.6791 3.73979 34.6793 3.73761 34.6795C3.73651 34.6796 3.7356 34.6796 3.73487 34.6797C3.7345 34.6797 3.73418 34.6798 3.7339 34.6798C3.73377 34.6798 3.73359 34.6798 3.73353 34.6798C3.73336 34.6798 3.73322 34.6798 3.81821 35.6762ZM9.22707 37.0176C9.72266 37.1334 10.3247 37.4059 10.999 37.7738C11.6797 38.1453 12.3127 38.5435 12.9626 38.9216C13.537 39.2558 14.2139 39.6313 14.7854 39.7442C15.0726 39.801 15.5872 39.8442 16.0352 39.4961C16.4983 39.1362 16.5812 38.603 16.5812 38.2494H14.5812C14.5812 38.3552 14.5516 38.1162 14.8079 37.9169C15.0492 37.7295 15.2629 37.7999 15.1731 37.7822C14.9907 37.7461 14.6098 37.5661 13.9684 37.1929C13.4026 36.8637 12.6618 36.4028 11.9569 36.0182C11.2456 35.63 10.4501 35.2495 9.68218 35.0701L9.22707 37.0176Z" fill="#041c32"/>
<rect x="17.8065" y="57.3839" width="21.0358" height="4.3716" rx="2.1858" stroke="#041c32" stroke-width="2"/>
<path d="M5.04352 13.7234C4.49123 13.7234 4.04352 14.1712 4.04352 14.7234C4.04352 15.2757 4.49123 15.7234 5.04352 15.7234V13.7234ZM10.6799 15.7234C11.2322 15.7234 11.6799 15.2757 11.6799 14.7234C11.6799 14.1712 11.2322 13.7234 10.6799 13.7234V15.7234ZM9.91667 4.21388C9.52615 3.82335 8.89298 3.82335 8.50246 4.21388C8.11193 4.6044 8.11193 5.23757 8.50246 5.62809L9.91667 4.21388ZM12.4234 9.54908C12.814 9.9396 13.4471 9.9396 13.8377 9.54908C14.2282 9.15855 14.2282 8.52539 13.8377 8.13486L12.4234 9.54908ZM27.0991 13.7234C26.5468 13.7234 26.0991 14.1712 26.0991 14.7234C26.0991 15.2757 26.5468 15.7234 27.0991 15.7234V13.7234ZM32.7355 15.7234C33.2878 15.7234 33.7355 15.2757 33.7355 14.7234C33.7355 14.1712 33.2878 13.7234 32.7355 13.7234V15.7234ZM19.8895 1C19.8895 0.447715 19.4418 0 18.8895 0C18.3372 0 17.8895 0.447715 17.8895 1H19.8895ZM17.8895 6.39135C17.8895 6.94364 18.3372 7.39135 18.8895 7.39135C19.4418 7.39135 19.8895 6.94364 19.8895 6.39135H17.8895ZM29.2765 5.62809C29.6671 5.23757 29.6671 4.6044 29.2765 4.21388C28.886 3.82335 28.2528 3.82335 27.8623 4.21388L29.2765 5.62809ZM23.9413 8.13486C23.5508 8.52539 23.5508 9.15855 23.9413 9.54908C24.3319 9.9396 24.965 9.9396 25.3556 9.54908L23.9413 8.13486ZM5.04352 15.7234H10.6799V13.7234H5.04352V15.7234ZM8.50246 5.62809L12.4234 9.54908L13.8377 8.13486L9.91667 4.21388L8.50246 5.62809ZM27.0991 15.7234H32.7355V13.7234H27.0991V15.7234ZM17.8895 1V6.39135H19.8895V1H17.8895ZM27.8623 4.21388L23.9413 8.13486L25.3556 9.54908L29.2765 5.62809L27.8623 4.21388Z" fill="#041c32"/>
</svg>
